<svg xmlns="http://www.w3.org/2000/svg" style="display:none">
<symbol id = "phone" viewBox="0 0 11 11">

  <path d="M10.758,9.774c-0.164,0.383-0.602,0.633-0.953,0.828C9.344,10.852,8.875,11,8.352,11
		c-0.727,0-1.383-0.297-2.047-0.539c-0.477-0.172-0.938-0.383-1.367-0.648c-1.328-0.82-2.93-2.422-3.75-3.75
		C0.922,5.633,0.711,5.172,0.54,4.695C0.297,4.031,0,3.375,0,2.648c0-0.523,0.148-0.992,0.398-1.453
		c0.196-0.352,0.446-0.789,0.829-0.953C1.485,0.125,2.032,0,2.313,0c0.055,0,0.109,0,0.164,0.023
		c0.164,0.055,0.336,0.438,0.414,0.594c0.25,0.445,0.492,0.898,0.75,1.336C3.766,2.156,4,2.406,4,2.648
		C4,3.125,2.586,3.82,2.586,4.242c0,0.211,0.195,0.484,0.305,0.672C3.68,6.336,4.665,7.321,6.086,8.11
		c0.188,0.109,0.461,0.305,0.672,0.305C7.18,8.415,7.875,7,8.352,7C8.594,7,8.844,7.235,9.047,7.36
		c0.438,0.258,0.891,0.5,1.336,0.75c0.156,0.078,0.539,0.25,0.594,0.414C11,8.579,11,8.633,11,8.688
		C11,8.969,10.875,9.516,10.758,9.774z"/>
</symbol>

<symbol id = "fb" viewBox="0 0 36.711 36.711">
  <path d="M36.711,34.686c0,1.119-0.907,2.025-2.026,2.025H25.33V22.495h4.771l0.715-5.541H25.33v-3.537
	c0-1.604,0.445-2.696,2.746-2.696l2.934-0.001V5.764c-0.508-0.067-2.249-0.219-4.275-0.219c-4.23,0-7.127,2.582-7.127,7.323v4.086
	h-4.784v5.541h4.784v14.216H2.026C0.907,36.711,0,35.805,0,34.686V2.026C0,0.907,0.907,0,2.026,0h32.659
	c1.119,0,2.026,0.907,2.026,2.026V34.686z"/>
</symbol>

<symbol id = "vk" viewBox="0 0 126 72">
<g>
		<path clip-path="url(#SVGID_2_)" d="M124.523,64.503c-0.152-0.328-0.293-0.597-0.426-0.816
			c-2.172-3.91-6.324-8.711-12.449-14.401l-0.129-0.134l-0.066-0.063l-0.066-0.066h-0.063c-2.781-2.651-4.543-4.434-5.281-5.344
			c-1.348-1.738-1.652-3.5-0.914-5.281c0.523-1.348,2.477-4.19,5.867-8.538c1.781-2.302,3.195-4.149,4.234-5.539
			c7.52-9.996,10.777-16.383,9.777-19.164l-0.387-0.649c-0.262-0.39-0.934-0.75-2.02-1.074c-1.086-0.327-2.477-0.383-4.172-0.163
			L99.656,3.398c-0.301-0.105-0.738-0.099-1.301,0.034c-0.566,0.13-0.852,0.195-0.852,0.195L97.18,3.793l-0.258,0.195
			c-0.219,0.129-0.457,0.354-0.719,0.683c-0.258,0.325-0.477,0.707-0.648,1.142c-2.047,5.258-4.367,10.145-6.977,14.663
			c-1.609,2.695-3.086,5.031-4.434,7.009c-1.348,1.976-2.477,3.434-3.387,4.366c-0.914,0.935-1.738,1.685-2.477,2.246
			c-0.742,0.567-1.305,0.806-1.695,0.72c-0.391-0.091-0.762-0.177-1.109-0.263c-0.609-0.39-1.098-0.922-1.465-1.597
			c-0.371-0.672-0.621-1.52-0.75-2.543c-0.129-1.021-0.207-1.899-0.23-2.637c-0.02-0.738-0.008-1.785,0.035-3.129
			c0.043-1.349,0.066-2.263,0.066-2.738c0-1.653,0.031-3.446,0.094-5.379c0.066-1.935,0.121-3.465,0.164-4.594
			c0.043-1.13,0.066-2.324,0.066-3.587c0-1.258-0.078-2.245-0.23-2.965c-0.148-0.715-0.379-1.41-0.684-2.086
			c-0.305-0.672-0.75-1.194-1.336-1.562c-0.586-0.371-1.313-0.664-2.18-0.883c-2.305-0.521-5.238-0.802-8.8-0.849
			c-8.082-0.086-13.274,0.438-15.579,1.567c-0.914,0.476-1.738,1.129-2.476,1.953c-0.781,0.957-0.891,1.479-0.328,1.565
			c2.609,0.392,4.453,1.325,5.543,2.802l0.39,0.784c0.305,0.563,0.61,1.563,0.911,2.996c0.304,1.435,0.5,3.021,0.585,4.758
			c0.219,3.173,0.219,5.888,0,8.149c-0.214,2.257-0.421,4.019-0.617,5.277c-0.195,1.262-0.488,2.28-0.879,3.065
			c-0.39,0.782-0.652,1.258-0.785,1.435c-0.129,0.172-0.238,0.28-0.324,0.323c-0.566,0.22-1.152,0.328-1.762,0.328
			c-0.605,0-1.344-0.304-2.215-0.914c-0.867-0.608-1.769-1.444-2.703-2.512c-0.933-1.062-1.988-2.55-3.164-4.464
			c-1.172-1.911-2.386-4.168-3.648-6.778l-1.043-1.89c-0.653-1.215-1.543-2.985-2.672-5.313c-1.129-2.323-2.129-4.569-2.996-6.745
			c-0.348-0.91-0.871-1.605-1.567-2.087l-0.324-0.194c-0.219-0.172-0.566-0.356-1.043-0.556c-0.48-0.194-0.976-0.336-1.5-0.422
			L4.172,3.265c-1.824,0-3.063,0.414-3.715,1.238L0.195,4.895C0.066,5.113,0,5.46,0,5.938c0,0.48,0.129,1.065,0.391,1.762
			C3,13.824,5.832,19.734,8.898,25.425c3.063,5.696,5.723,10.278,7.981,13.754c2.262,3.478,4.562,6.758,6.91,9.84
			c2.348,3.086,3.902,5.063,4.66,5.935c0.762,0.871,1.36,1.519,1.793,1.953l1.629,1.565c1.043,1.043,2.574,2.293,4.598,3.746
			c2.02,1.457,4.258,2.891,6.711,4.305c2.457,1.41,5.312,2.563,8.574,3.453c3.258,0.892,6.43,1.25,9.516,1.074h7.496
			c1.52-0.129,2.672-0.609,3.453-1.433l0.258-0.324c0.176-0.262,0.34-0.665,0.488-1.208c0.152-0.542,0.23-1.14,0.23-1.792
			c-0.043-1.868,0.098-3.551,0.422-5.051c0.324-1.496,0.695-2.625,1.109-3.388c0.414-0.762,0.879-1.401,1.402-1.922
			c0.52-0.522,0.891-0.836,1.109-0.944c0.215-0.11,0.387-0.185,0.52-0.231c1.043-0.347,2.27-0.007,3.684,1.012
			c1.41,1.024,2.734,2.281,3.977,3.781c1.238,1.5,2.727,3.184,4.461,5.051c1.742,1.867,3.262,3.258,4.563,4.172l1.305,0.781
			c0.871,0.524,2,1,3.391,1.435c1.391,0.437,2.605,0.547,3.648,0.327l16.688-0.262c1.648,0,2.934-0.272,3.844-0.815
			c0.914-0.544,1.453-1.142,1.629-1.789c0.176-0.653,0.184-1.392,0.035-2.22C124.824,65.406,124.672,64.828,124.523,64.503
			L124.523,64.503z M124.523,64.503"/>
	</g>
</symbol>


<symbol id = "tw" viewBox="0 0 37.453 31.21">
<path d="M36.421,0.577c-1.486,0.902-3.129,1.558-4.884,1.909C30.14,0.956,28.142,0,25.93,0
	c-4.24,0-7.682,3.528-7.682,7.879c0,0.618,0.066,1.217,0.198,1.794C12.061,9.344,6.399,6.211,2.607,1.438
	c-0.662,1.168-1.04,2.522-1.04,3.966c0,2.731,1.356,5.144,3.418,6.557c-1.257-0.038-2.444-0.396-3.481-0.981v0.096
	c0,3.819,2.648,7.004,6.167,7.725c-0.645,0.186-1.324,0.277-2.025,0.277c-0.495,0-0.979-0.047-1.447-0.139
	c0.979,3.129,3.815,5.408,7.179,5.469c-2.63,2.115-5.944,3.375-9.544,3.375c-0.619,0-1.232-0.037-1.833-0.109
	c3.4,2.232,7.441,3.537,11.778,3.537c14.136,0,21.863-12.004,21.863-22.417c0-0.343-0.006-0.685-0.021-1.021
	c1.502-1.112,2.807-2.498,3.832-4.078c-1.376,0.626-2.857,1.05-4.412,1.24C34.629,3.961,35.847,2.417,36.421,0.577"/>
</symbol>

<symbol id = "inst" viewBox="0 0 36.663 36.664">
<path d="M32.305,0H4.357C1.95,0,0,1.946,0,4.349v27.967c0,2.4,1.95,4.348,4.357,4.348h27.947
	c2.407,0,4.358-1.947,4.358-4.348V4.349C36.663,1.946,34.712,0,32.305,0 M26.352,5.729c0-0.632,0.513-1.146,1.146-1.146h3.438
	c0.632,0,1.145,0.514,1.145,1.146v3.438c0,0.633-0.513,1.146-1.145,1.146h-3.438c-0.633,0-1.146-0.513-1.146-1.146V5.729z
	 M18.374,11.341c3.894,0,7.051,3.149,7.051,7.033c0,3.885-3.157,7.034-7.051,7.034s-7.051-3.148-7.051-7.034
	C11.323,14.49,14.48,11.341,18.374,11.341 M33.226,32.08c0,0.633-0.513,1.146-1.146,1.146H4.583c-0.633,0-1.146-0.514-1.146-1.146
	V14.895H8.02c-0.597,0.858-0.798,2.462-0.798,3.479c0,6.135,5.003,11.127,11.152,11.127s11.153-4.992,11.153-11.127
	c0-1.018-0.145-2.596-0.885-3.479h4.583V32.08z"/>
</symbol>

<symbol id = "arrow-scroll" viewBox="0 0 28.685 14.479">
	<path d="M14.332,14.479c-1.279,0-2.554-0.486-3.525-1.458L0.268,1.681c-0.376-0.404-0.353-1.037,0.052-1.413
			c0.403-0.374,1.036-0.354,1.413,0.052l10.514,11.314c1.145,1.143,3.049,1.142,4.218-0.026L26.952,0.319
			c0.378-0.405,1.011-0.426,1.413-0.052c0.404,0.376,0.428,1.009,0.052,1.413L17.903,12.995
			C16.913,13.986,15.62,14.479,14.332,14.479z"/>
</symbol>

<symbol id = "beef" viewBox="0 0 44 39.212">
	<path fill="#E35028" d="M40.158,13.595c-0.365-0.693-0.732-1.389-1.098-2.089c1.488-1.032,2.652-2.173,3.48-3.356
		c-0.433-0.464-0.864-0.93-1.296-1.394c0.071-0.068,0.142-0.135,0.212-0.202c0.405,0.466,0.811,0.933,1.216,1.399
		c1.569-2.361,1.788-4.88,0.437-7.056l-0.281-0.451l-0.873,0.918c-0.351,0.37-0.687,0.726-1.032,1.072
		c-0.261,0.26-0.522,0.504-0.784,0.74c-0.006,0.053-0.018,0.097-0.041,0.119c-0.088,0.087-0.211,0.162-0.342,0.211
		c-3.408,2.896-7.048,3.787-11.621,2.893c-1.215-0.237-2.563-0.353-4.123-0.353c-1.438,0-2.914,0.096-4.341,0.189
		c-1.389,0.09-2.825,0.184-4.216,0.188c-0.358,0-0.723,0.011-1.089,0.02c0.013,0.042,0.031,0.082,0.043,0.124
		c0.044,0.155-0.03,0.438-0.148,0.519c-0.115,0.078-0.417,0.038-0.532-0.066c-0.2-0.183-0.355-0.365-0.468-0.557
		c-0.076,0-0.152,0.004-0.228,0.004c-0.968,0-2.089-0.051-3.072-0.435C9.028,5.668,8.135,5.155,7.263,4.596
		c0.096-0.111,0.17-0.235,0.212-0.375C7.521,4.073,7.437,3.75,7.338,3.714C7.096,3.628,6.694,3.771,6.353,3.998
		C6.071,3.806,5.79,3.613,5.513,3.421c-0.438-0.304-0.88-0.6-1.322-0.895C4.079,2.644,3.943,2.734,3.789,2.782
		c-0.307,0.095-0.62,0.171-1.09,0.298C2.871,2.604,3.01,2.2,3.152,1.818C2.922,1.653,2.675,1.469,2.385,1.253
		c-0.306-0.228-0.657-0.49-1.081-0.799L0.682,0L0.651,0.77C0.453,5.66,2.096,9.035,5.814,11.351
		c-0.349,0.453-0.701,0.882-1.042,1.299c-0.914,1.115-1.776,2.168-2.342,3.377c-1.503,3.21-2.152,4.841-1.61,5.917
		c0.498,0.988,1.82,1.257,4.221,1.744c0.381,0.077,0.792,0.16,1.23,0.253c1.222,0.257,1.723,0.563,2.107,1.772
		c1.494,4.707,4.339,8.592,8.457,11.545c1.806,1.296,3.62,1.953,5.392,1.953c1.625,0,3.15-0.564,4.542-1.665
		c-0.257-0.102-0.514-0.212-0.77-0.276c-0.171-0.043-0.166-0.771-0.258-1.268c0.752,0.161,1.303,0.28,1.902,0.407
		c0.051,0.077,0.107,0.167,0.167,0.26c0.274-0.238,0.547-0.48,0.818-0.725c-0.122,0.469-0.234,0.902-0.323,1.245
		c0.49-0.225,1.039-0.475,1.59-0.729c-0.138-0.481-0.437-0.819-0.789-0.956c2.003-1.851,3.842-3.873,5.003-6.181
		c1.035-2.056,1.94-3.844,3.43-4.967c0.033,0.01,0.06,0.019,0.095,0.029c-0.022-0.025-0.035-0.037-0.056-0.06
		c0.937-0.694,2.104-1.127,3.679-1.198c1.229-0.056,1.798-0.595,2.059-1.037c0.412-0.699,0.358-1.653-0.154-2.684
		C42.193,17.458,41.159,15.495,40.158,13.595z M3.724,5.456l6.922,3.803c-0.125,0.04-0.243,0.08-0.357,0.118
		C9.649,9.589,9.183,9.753,8.793,9.682C6.348,9.246,4.716,7.894,3.724,5.456z M6.114,12.583c0.302,0.276,0.578,0.526,0.884,0.806
		c-0.354,0.032-0.808,0.073-1.526,0.139C5.789,13.061,5.946,12.83,6.114,12.583z M3.161,20.815c0.678-2.413,1.51-4.372,2.934-5.935
		c-0.162,0.337-0.303,0.646-0.08,1.046c0.21,0.379,0.305,0.82,0.48,1.221c0.049,0.113,0.228,0.271,0.299,0.249
		c0.133-0.041,0.317-0.187,0.332-0.306c0.112-0.924-0.211-1.724-0.715-2.549c0.5-0.497,1.064-0.954,1.72-1.365l-0.43,4.689
		c0.27-0.183,0.66-0.253,1.188-0.194c-0.57,0.348-0.567,1.261-1.291,1.326L7.35,21.691L3.161,20.815z M7.721,20.954
		c0.599-0.104,1.03-0.203,1.464-0.223c0.057-0.003,0.256,0.514,0.178,0.6c-0.248,0.276-0.596,0.463-0.955,0.719
		C8.167,21.666,8.002,21.401,7.721,20.954z M27.728,33.825c0.107-0.262,0.183-0.543,0.195-0.792
		c0.052-0.977,0.052-0.977-0.669-2.022c0.054,0.544,0.146,1.083,0.322,1.596c0.151,0.441-0.007,0.938-0.434,1.073
		c-0.395,0.128-0.784,0.721-0.632,1.067c0.01,0.021,0.023,0.042,0.033,0.063c-0.202,0.158-0.399,0.318-0.609,0.475
		c-1.395,1.038-2.583,1.521-3.738,1.521c0,0,0,0,0,0c-1.04,0-2.127-0.381-3.468-1.217c-0.135,0-0.271,0-0.406,0
		c-0.016-0.082-0.032-0.162-0.047-0.244c0.019-0.004,0.038-0.009,0.057-0.014c-0.041-0.026-0.079-0.049-0.121-0.077
		c-1.203-0.813-2.289-1.762-3.252-2.811c0.103,0.035,0.198,0.067,0.293,0.096c0.392,0.118,0.764-0.164,0.636-0.521
		c-0.309-0.854,0.095-1.402,0.79-1.938c-0.427-0.293-0.689-0.273-0.828,0.232c-0.077,0.286-0.193,0.561-0.314,0.83
		c-0.281,0.624-0.72,0.681-1.18,0.164c-0.08-0.092-0.159-0.182-0.228-0.261c-0.088,0.035-0.183,0.058-0.265,0.083
		c-1.343-1.755-2.368-3.733-3.048-5.826c0.405,0.182,0.844,0.089,1.275,0.061c0.009-0.086,0.018-0.172,0.028-0.258
		c-0.463-0.03-0.925-0.061-1.387-0.089c-0.001,0.011-0.002,0.021-0.003,0.031c-1.01-3.261-1.178-6.786-0.349-10.179
		c-0.78-0.028-1.563-0.029-2.342-0.177c0.787,0,1.575,0.033,2.358-0.009c0.009,0,0.018-0.002,0.027-0.002
		c0.025-0.099,0.041-0.199,0.068-0.297c0.292-1.064,0.769-2.245,1.539-3.248c-0.209-1.098-0.419-2.202-0.628-3.297
		c0.097-0.045,0.193-0.091,0.29-0.136c0.135,0.261,0.256,0.531,0.407,0.782c0.144,0.238,0.318,0.458,0.479,0.685
		c0.227-0.213,0.502-0.394,0.667-0.647c0.171-0.263,0.236-0.595,0.394-1.025c0.237,0.53,0.417,0.931,0.579,1.295
		c-0.397,0.339-0.427,0.552-0.314,0.718c0.58-0.314,1.241-0.546,2.006-0.653c2.378-0.331,4.765-0.499,7.094-0.499
		c1.411,0,2.811,0.063,4.164,0.185c1.142,0.104,2.145,0.432,3.028,0.924c-0.034,0.165,0.07,0.344,0.333,0.773
		c0.104-0.195,0.18-0.339,0.229-0.455c1.664,1.153,2.767,3.057,3.199,5.604c0.168,0.986,0.239,1.988,0.303,2.872
		c0.026,0.365,0.05,0.705,0.077,0.973C34.347,25.087,32.178,29.878,27.728,33.825z M33.852,9.41l7.091-3.355
		c-0.688,1.948-2.111,3.153-4.33,3.672l-0.395,0.096c-0.438,0.111-0.891,0.226-1.279,0.226C34.574,10.048,34.171,9.964,33.852,9.41z
		 M37.304,22.299c-0.05-0.147-0.099-0.296-0.148-0.443c0.804-0.231,1.606-0.464,2.41-0.696c0.039,0.119,0.078,0.237,0.119,0.355
		C38.891,21.776,38.097,22.037,37.304,22.299z M36.964,21.748l-0.854-8.54c1.001,0.591,1.79,1.29,2.442,2.104
		c-0.039-0.662,0.475-0.591,0.986-0.422c0.047,1.605,0.047,1.605,0.5,1.704c-0.074,0.195-0.164,0.43-0.26,0.68
		c0.496,1.024,0.891,2.184,1.254,3.494L36.964,21.748z"/>
	<path fill="#E35028" d="M19.406,4.425c0.239,0.177,0.443,0.399,0.664,0.602c0.168-0.227,0.336-0.455,0.442-0.596
		c-0.841-1.107-1.609-2.118-2.377-3.129c-0.069,0.018-0.138,0.036-0.207,0.053c0.014,0.204-0.054,0.483,0.054,0.598
		C18.653,2.667,18.571,3.809,19.406,4.425z"/>
	<path fill="#E35028" d="M10.975,34.778c-0.079,0.35-0.201,0.688-0.216,1.029c-0.01,0.23,0.13,0.469,0.203,0.702
		c0.145-0.147,0.29-0.292,0.446-0.452c0.354,0.332,0.754,0.707,1.154,1.082C12.362,36.121,11.978,35.258,10.975,34.778z"/>
	<path fill="#E35028" d="M33.199,5.524c-0.323-0.064-0.643-0.155-0.969-0.185c-0.267-0.024-0.518,0.027-0.512-0.379
		c0.006-0.405-0.244-0.428-0.568-0.32c-0.555,0.186-0.789,0.514-0.533,1.168C31.443,4.935,32.285,5.909,33.199,5.524z"/>
	<path fill="#E35028" d="M22.787,9.299c-0.089-0.125-0.319-0.184-0.492-0.201c-0.069-0.007-0.187,0.168-0.233,0.281
		c-0.148,0.363-0.273,0.736-0.443,1.207c0.332-0.09,0.551-0.143,0.767-0.21C22.809,10.246,23.044,9.663,22.787,9.299z"/>
	<path fill="#E35028" d="M29.195,11.368c-0.457,0.949-0.384,1.467,0.188,1.991c0.08,0.073,0.293,0.102,0.374,0.047
		c0.083-0.057,0.136-0.256,0.104-0.366c-0.086-0.303-0.221-0.591-0.338-0.885C29.436,11.943,29.347,11.733,29.195,11.368z"/>
	<path fill="#E35028" d="M28.314,37.874c-0.457,0.373-0.378,0.809,0.156,1.048c0.336-0.492,0.67-0.985,1.004-1.479
		c-0.051-0.043-0.103-0.086-0.154-0.13C28.982,37.495,28.607,37.635,28.314,37.874z"/>
	<path fill="#E35028" d="M34.806,31.399c0.163,0.148,0.33,0.422,0.488,0.416c0.205-0.006,0.403-0.232,0.747-0.459
		c-0.3-0.262-0.544-0.557-0.616-0.52C35.186,30.958,35.008,31.202,34.806,31.399z"/>
	<path fill="#E35028" d="M30.24,5.152c-0.539-0.444-1.014-0.834-1.563-1.287C28.648,4.547,29.625,5.354,30.24,5.152z"/>
	<path fill="#E35028" d="M37.614,21.56c0.131-0.564,0.261-1.128,0.41-1.77C37.404,20.063,37.17,20.883,37.614,21.56z"/>
	<path fill="#E35028" d="M23.386,34.294c-0.671,0-1.226,0-1.873,0C21.897,34.792,22.53,34.784,23.386,34.294z"/>
	<path fill="#E35028" d="M19.415,26.608c0.106,0.228,0.214,0.451,0.314,0.68c0.094,0.213,0.179,0.433,0.269,0.649
		C20.197,26.892,19.998,26.507,19.415,26.608z"/>
	<path fill="#E35028" d="M20.738,35.344c-0.03-0.013-0.193,0.163-0.202,0.259c-0.007,0.072,0.127,0.178,0.22,0.23
		c0.209,0.119,0.432,0.215,0.741,0.366c0-0.161,0.061-0.384-0.011-0.443C21.266,35.58,21,35.456,20.738,35.344z"/>
	<path fill="#E35028" d="M8.55,31.523c0.042-0.046,0.084-0.093,0.127-0.14c-0.3-0.276-0.6-0.553-1.004-0.924
		C7.571,31.394,8.057,31.462,8.55,31.523z"/>
	<path fill="#E35028" d="M17.395,10.737c0.061-0.061,0.026-0.347-0.032-0.371c-0.146-0.059-0.35-0.079-0.491-0.02
		c-0.181,0.078-0.323,0.248-0.475,0.373c0.178,0.074,0.356,0.196,0.541,0.208C17.091,10.936,17.284,10.847,17.395,10.737z"/>
	<path fill="#E35028" d="M38.097,29.659c0.082,0.084,0.166,0.17,0.248,0.256c0.231-0.309,0.462-0.618,0.73-0.977
		C38.455,28.825,38.173,29.062,38.097,29.659z"/>
	<path fill="#E35028" d="M0,6.143c0.249,0.297,0.459,0.549,0.669,0.8C0.784,6.215,0.636,6.062,0,6.143z"/>
	<path fill="#E35028" d="M34.19,32.065c0.09,0.33,0.18,0.66,0.269,0.99c0.063-0.015,0.127-0.031,0.189-0.048
		C34.808,32.62,34.705,32.29,34.19,32.065z"/>
	<path fill="#E35028" d="M19.35,14.179c-0.333-0.382-0.665-0.765-0.999-1.148c-0.049,0.047-0.099,0.095-0.148,0.143
		c0.345,0.372,0.691,0.744,1.036,1.116C19.276,14.252,19.313,14.215,19.35,14.179z"/>
	<path fill="#E35028" d="M28.664,5.764c0.111-0.165,0.252-0.318,0.315-0.499c0.024-0.07-0.127-0.202-0.284-0.43
		c-0.148,0.304-0.271,0.472-0.301,0.656C28.38,5.564,28.568,5.672,28.664,5.764z"/>
	<ellipse fill="#E35028" cx="18.219" cy="20.872" rx="2.027" ry="1.834"/>
	<path fill="#E35028" d="M29.324,20.224c-0.111-0.207-0.209-0.438-0.41-0.638c-0.173-0.214-0.396-0.413-0.678-0.565
		c-0.26-0.166-0.593-0.267-0.908-0.321c-0.328-0.048-0.645-0.032-0.945,0.027c-0.288,0.07-0.566,0.164-0.791,0.301
		c-0.467,0.256-0.797,0.596-1.012,0.929c-0.227,0.314-0.338,0.64-0.396,0.868c-0.042,0.223-0.039,0.361-0.039,0.361
		s0.125-0.041,0.345-0.111c0.189-0.051,0.46-0.123,0.784-0.209c0.309-0.073,0.642-0.152,0.951-0.187
		c0.156-0.03,0.302-0.021,0.438-0.036c0.134,0.011,0.258,0.006,0.369,0.033c0.115,0.016,0.223,0.037,0.34,0.08
		c0.055,0.025,0.115,0.044,0.182,0.057c0.06,0.035,0.119,0.073,0.187,0.102c0.138,0.047,0.261,0.158,0.398,0.236
		c0.144,0.072,0.268,0.186,0.399,0.275c0.12,0.099,0.264,0.176,0.367,0.27c0.104,0.09,0.215,0.164,0.303,0.229
		c0.182,0.126,0.306,0.198,0.306,0.198s0.034-0.13,0.06-0.356c0.017-0.226,0.054-0.558-0.051-0.932
		C29.474,20.646,29.443,20.43,29.324,20.224z"/>
</symbol>

<symbol id ="buns" viewBox="0 0 48 30.317">
	<path fill="#F9B43B" d="M20.475,5.926l0.494,0.482c0.582,0.569,1.246,0.883,1.869,0.883c0,0,0,0,0,0c0.555,0,1.05-0.256,1.36-0.702
		c0.25-0.359,0.204-0.811,0.155-1.048c-0.075-0.361-0.247-0.635-0.498-0.79c-0.427-0.265-0.852-0.399-1.263-0.399
		c-0.448,0-1.089,0.167-1.652,0.916c0.185-0.029,0.37-0.062,0.552-0.079c0.014,0.091,0.027,0.182,0.042,0.273
		c-0.259,0.021-0.52,0.041-0.78,0.062L20.475,5.926z"/>
	<path fill="#F9B43B" d="M12.994,9.065l-0.699-0.837l-0.605,0.908c-0.037,0.054-0.087,0.112-0.136,0.171
		c-0.243,0.292-0.61,0.734-0.387,1.289c0.173,0.429,0.431,0.801,0.659,1.129c0.079,0.114,0.158,0.227,0.233,0.342l0.342,0.448
		l1.325-0.239l0.16-0.444c0.019-0.052,0.049-0.109,0.078-0.167c0.142-0.29,0.381-0.774,0.1-1.253
		c-0.23-0.394-0.516-0.716-0.792-1.028C13.178,9.279,13.084,9.173,12.994,9.065z"/>
	<path fill="#F9B43B" d="M31.183,10.282l2.492-2.583l-0.654-0.563c-0.055-0.048-0.119-0.113-0.184-0.176
		c-0.295-0.291-0.55-0.541-0.949-0.541l-0.238,0.003l-0.191,0.113c-0.535,0.314-0.982,0.715-1.385,1.099
		c-0.557,0.527-0.113,1.083,0.21,1.488c0.097,0.122,0.21,0.263,0.323,0.41L31.183,10.282z"/>
	<path fill="#F9B43B" d="M16.737,8.547c0.315,0,0.521-0.147,0.861-0.392c0.122-0.087,0.269-0.193,0.436-0.302l0.986-0.647
		l-1.403-1.027c-0.309-0.229-0.572-0.423-0.838-0.599c-0.361-0.012-0.723-0.033-1.084-0.101c0.311,0,0.622,0.004,0.933,0.005
		c-0.068-0.042-0.135-0.085-0.205-0.126l-0.2-0.113h-0.219c-0.404,0-0.64,0.251-0.913,0.543c-0.055,0.058-0.109,0.118-0.155,0.162
		L14.33,6.525L15.196,7.4c0.076,0.078,0.157,0.157,0.235,0.236c0.182-0.143,0.458-0.196,0.838-0.154
		c-0.206,0.125-0.301,0.359-0.419,0.557c0.116,0.107,0.229,0.216,0.353,0.318l0.242,0.19H16.737L16.737,8.547z"/>
	<path fill="#F9B43B" d="M6.683,12.869c-0.062,0.327-0.124,0.659-0.197,0.995l-0.35,1.597h4.374l0.22,0.533l0.102-0.533H28.01
		c-0.071,0.114-0.127,0.251-0.151,0.44c0.08,0.081,0.159,0.162,0.238,0.246c0.164-0.221,0.333-0.447,0.512-0.686h15.08l-0.114-1.772
		c-0.013-0.262-0.027-0.479-0.054-0.694c-0.437-3.416-2.178-6.204-5.325-8.523c-3.564-2.625-8.234-4.07-13.149-4.07
		c-1.776,0-3.563,0.2-5.313,0.594l-0.582,0.157l0.113,0.256c-0.094,0.134-0.17,0.305-0.159,0.505c0.01,0.18,0.083,0.318,0.174,0.425
		l-0.053,0.021l0.108,0.43c0.018,0.069,0.042,0.141,0.068,0.213c0.005,0.016,0.012,0.035,0.019,0.054
		c-0.063-0.118-0.125-0.236-0.186-0.35c-0.083,0.021-0.167,0.044-0.25,0.065c0.009,0.197-0.011,0.41-0.005,0.609
		c0.154-0.045,0.313-0.08,0.47-0.119l0.007,0.506l0.608-0.145c2.134-0.509,4.332-0.687,6.481-0.54l-0.813,0.767l1.225,1.255
		c0.315,0.33,0.643,0.671,1.038,1l0.382,0.3h0.466c0.463,0,0.771-0.212,1.154-0.474c0.115-0.079,0.252-0.172,0.406-0.269
		l1.632-1.016L30.98,3.855c2.099,0.605,4.022,1.534,5.653,2.735c0.16,0.118,0.304,0.24,0.454,0.36
		c-0.555,0.152-1.062,0.897-1.065,0.905l-0.234,0.448l0.268,0.407c0.268,0.403,0.568,0.764,0.859,1.113l0.741,0.899l0.048-0.039
		c-0.192-0.484-0.326-1.001-0.691-1.389c-0.103-0.11-0.038-0.377-0.051-0.571c0.065-0.017,0.132-0.034,0.197-0.051
		c0.381,0.5,0.761,1.001,1.15,1.514l1.051-0.864c0.742,1.066,1.233,2.228,1.47,3.506h-5.209c0.072-0.056,0.143-0.112,0.208-0.166
		c0.076-0.062,0.151-0.126,0.227-0.176l0.931-0.611l-2.454-1.999l-2.379,2.061l0.992,0.573c0.089,0.052,0.178,0.116,0.268,0.179
		c0.063,0.045,0.133,0.092,0.203,0.139h-7.494l1.725-2.227l-1.203-1.258c-0.006,0.087-0.025,0.184-0.061,0.294
		c-0.059,0.187,0.255,0.502,0.415,0.746c0.089,0.137,0.216,0.249,0.419,0.477c-0.878-0.263-0.936-0.307-1.246-0.976
		c-0.193-0.416-0.376-0.838-0.562-1.258L25.188,9.27c-0.051,0.078-0.117,0.156-0.182,0.234c-0.246,0.301-0.583,0.713-0.545,1.253
		c0.037,0.516,0.355,0.891,0.612,1.192c0.069,0.083,0.142,0.164,0.198,0.247l0.441,0.633h-6.942l0.864-0.85
		c0.323-0.313,0.658-0.637,0.963-1.005c0.428-0.517,0.068-1.023-0.194-1.393c-0.088-0.125-0.195-0.274-0.306-0.445l-0.644-0.993
		l-0.699,0.955c-0.123,0.167-0.237,0.321-0.343,0.463c-0.327,0.437-0.584,0.783-0.811,1.176c-0.343,0.596,0.133,1.057,0.418,1.332
		c0.057,0.055,0.114,0.109,0.156,0.156l0.552,0.604h-9.36c0.103-0.527,0.214-1.026,0.374-1.48c0.704-1.993,2.073-3.627,4.309-5.145
		c0.655-0.444,1.36-0.847,2.111-1.207l0.01-0.001l-0.003-0.003c0.771-0.369,1.591-0.692,2.453-0.968l0.422-0.135l-0.495-2.6
		l-0.534,0.166c-2.018,0.624-3.849,1.488-5.442,2.57c-0.71,0.482-1.381,1.011-1.994,1.572l-0.202,0.253l0.055,0.276
		c0.004,0.059,0.012,0.114,0.021,0.166L10.14,6.019C8.951,7.202,8.096,8.479,7.506,9.888c-0.474,0.136-0.948,0.273-1.423,0.409
		c0.034,0.1,0.066,0.2,0.1,0.299c0.396-0.13,0.793-0.261,1.19-0.392c-0.035,0.091-0.081,0.177-0.113,0.27
		C6.983,11.26,6.833,12.063,6.683,12.869z M25.316,11.924c0.099-0.485,1.085-1.1,1.519-0.943c0.096,0.034,0.176,0.342,0.133,0.485
		c-0.154,0.505-0.691,0.831-1.484,0.875C25.438,12.236,25.288,12.062,25.316,11.924z"/>
	<polygon fill="#F9B43B" points="18.757,1.756 18.748,1.759 18.75,1.763 	"/>
	<path fill="#F9B43B" d="M43.872,29.581c0.189,0.301,0.301,0.479,0.463,0.736c0.242-0.171,0.476-0.297,0.643-0.482
		c0.053-0.059-0.082-0.405-0.12-0.404C44.565,29.444,44.274,29.51,43.872,29.581z"/>
	<path fill="#F9B43B" d="M44.658,20.23c-0.769-0.087-1.122,0.218-1.101,0.876C44.285,21.256,44.222,20.497,44.658,20.23z"/>
	<path fill="#F9B43B" d="M34.474,23.045c0.032,0.1,0.066,0.199,0.099,0.298c0.534-0.176,1.068-0.352,1.603-0.528
		c-0.027-0.08-0.054-0.158-0.08-0.237C35.554,22.732,35.013,22.889,34.474,23.045z"/>
	<path fill="#F9B43B" d="M35.953,17.323c-0.173,0.074-0.309,0.236-0.454,0.356c0.17,0.069,0.34,0.187,0.517,0.198
		c0.146,0.009,0.331-0.076,0.437-0.182c0.059-0.059,0.025-0.332-0.03-0.355C36.283,17.284,36.087,17.265,35.953,17.323z"/>
	<path fill="#F9B43B" d="M27.376,21.204c-0.19,0.455-0.338,0.805-0.493,1.176c0.676,0.088,0.566-0.543,0.772-0.861
		C27.677,21.483,27.464,21.3,27.376,21.204z"/>
	<path fill="#F9B43B" d="M29.559,10.574c0.022,0.192,0.144,0.394,0.276,0.545c0.07,0.08,0.254,0.059,0.387,0.083
		c0.014-0.162,0.013-0.326,0.045-0.483c0.047-0.224,0.117-0.442,0.184-0.68c-0.206,0-0.463,0-0.711,0
		C29.667,10.234,29.54,10.413,29.559,10.574z"/>
	<path fill="#F9B43B" d="M27.397,8.156c0.125-0.54,0.25-1.08,0.392-1.692C27.196,6.725,26.974,7.509,27.397,8.156z"/>
	<path fill="#F9B43B" d="M15.946,10.429c0.242-0.172,0.476-0.297,0.643-0.483c0.053-0.059-0.082-0.406-0.12-0.404
		c-0.292,0.013-0.583,0.08-0.985,0.15C15.672,9.993,15.784,10.171,15.946,10.429z"/>
	<path fill="#F9B43B" d="M29.089,8.827c-0.488-0.455-0.678-0.467-1.246-0.099c0.094,0.181,0.174,0.33,0.268,0.51
		C28.427,9.105,28.743,8.972,29.089,8.827z"/>
	<path fill="#F9B43B" d="M0,11.548c0.004,0.059,0.008,0.119,0.013,0.178c0.25,0.167,0.501,0.332,0.95,0.629
		c-0.035-0.377-0.011-0.775-0.087-0.794C0.602,11.487,0.294,11.542,0,11.548z"/>
	<path fill="#F9B43B" d="M9.129,16.17c-0.018-0.016-0.033-0.03-0.051-0.047c-0.002,0.018,0,0.031-0.002,0.047
		C9.094,16.17,9.112,16.17,9.129,16.17z"/>
	<path fill="#F9B43B" d="M1.665,11.694c0.416,0.248,0.875,0.128,1.324,0.099c0.009-0.082,0.018-0.165,0.027-0.247
		c-0.442-0.029-0.885-0.056-1.327-0.084C1.681,11.541,1.673,11.617,1.665,11.694z"/>
	<path fill="#F9B43B" d="M28.691,17.926c0-0.423,0-0.846,0-1.268c-0.078,0.003-0.156,0.006-0.235,0.011
		c0.031,0.429,0.063,0.856,0.094,1.285C28.597,17.945,28.645,17.936,28.691,17.926z"/>
	<path fill="#F9B43B" d="M9.933,1.098C9.615,0.732,9.296,0.366,8.978,0C8.931,0.045,8.883,0.091,8.835,0.136
		c0.331,0.355,0.661,0.711,0.992,1.067C9.862,1.168,9.897,1.134,9.933,1.098z"/>
	<path fill="#F9B43B" d="M46.571,4.442c0,0.226,0,0.451,0,0.676c0.441,0.094,0.885,0.188,1.326,0.282
		C47.932,5.296,47.966,5.193,48,5.09C47.523,4.874,47.048,4.658,46.571,4.442z"/>
	<path fill="#F9B43B" d="M43.439,19.361l-0.075-1.169h-1.171c-0.299,0-0.599,0.01-0.973,0.021c-0.601,0.019-1.198,0.024-1.649-0.029
		c-0.527-0.063-1.008-0.093-1.469-0.093c-0.421,0-0.82,0.033-1.207,0.086h-7.406c-0.137-0.006-0.27-0.009-0.397-0.009l-1.567,0.009
		h-0.071l-1.64,0.01v0.002h-0.35c-1.891,0.008-3.956,0.011-6.364,0.011L6.766,18.192l-0.051,1.195
		c-0.108,2.549,0.884,5.131,2.723,7.084c1.844,1.958,4.374,3.107,6.941,3.152c3.168,0.057,6.348,0.084,9.449,0.084
		c2.593,0,5.21-0.02,7.778-0.059c2.682-0.04,5.315-1.249,7.225-3.316c1.311-1.418,2.185-3.176,2.492-4.994l0.043,0.039l0.082-1.008
		l-0.013,0.001C43.458,19.999,43.459,19.667,43.439,19.361z M26.031,18.768c0.062,0.164,0.095,0.317,0.126,0.472
		c-0.059-0.157-0.123-0.315-0.209-0.471c-0.031-0.058-0.047-0.11-0.051-0.169l-0.01-0.219L26.031,18.768z M38.997,24.638
		c-1.447,1.567-3.426,2.483-5.429,2.514c-5.604,0.085-11.427,0.077-17.145-0.025c-1.899-0.034-3.783-0.896-5.167-2.367
		c-1.085-1.153-1.781-2.583-1.987-4.069l9.831,0.006c2.408,0,4.464-0.004,6.353-0.012v0.002l0.477-0.003
		c0.057-0.001,0.118-0.001,0.176-0.001l0.959,0.006l-0.01-0.012l2.107-0.012c0.25,0,0.469,0.02,0.773,0.07h2.367h1.199h3.194
		l0.095-0.011c0.641-0.144,1.363-0.166,2.197-0.087l0.631,0.056c0.381,0.028,0.824,0.038,1.285,0.027
		C40.714,22.125,40.047,23.5,38.997,24.638z"/>
</symbol>

<symbol id ="salad" viewBox="0 0 38 38.638">
	<path fill-rule="evenodd" clip-rule="evenodd" fill="#8BC03F" d="M11.954,35.416c-0.088-0.107-0.19-0.231-0.292-0.355
			c0.013-0.027,0.025-0.055,0.039-0.084c0.092,0.048,0.195,0.081,0.273,0.146c0.113,0.093,0.252,0.192,0.296,0.317
			c0.035,0.102-0.055,0.246-0.092,0.379c-0.422-0.187-0.742-0.097-0.947,0.236c-0.037,0.06-0.013,0.16-0.009,0.24
			c0.01,0.253,0.021,0.506,0.036,0.759c0.007,0.117,0.024,0.233,0.04,0.386c-0.327,0-0.651,0-0.976,0
			c-0.006-0.031-0.012-0.061-0.018-0.092c0.124-0.025,0.248-0.061,0.373-0.071c0.168-0.015,0.288-0.052,0.252-0.263
			c-0.006-0.039,0.051-0.089,0.08-0.134c0.029-0.046,0.093-0.108,0.081-0.134c-0.029-0.06-0.088-0.115-0.147-0.148
			c-0.111-0.061-0.231-0.105-0.349-0.156c0.016-0.031,0.031-0.063,0.046-0.094c0.097,0.037,0.193,0.074,0.392,0.15
			c-0.38-0.403,0.054-0.563,0.12-0.822C11.271,35.202,11.697,35.732,11.954,35.416z"/>
		<path fill-rule="evenodd" clip-rule="evenodd" fill="#8BC03F" d="M18.06,35.646c-0.368,0.283-0.582,0.573-0.418,1.026
			c0.068,0.188-0.129,0.338-0.336,0.275c-0.111-0.034-0.22-0.073-0.381-0.128c0.05,0.156,0.079,0.246,0.128,0.403
			c-0.087-0.053-0.143-0.067-0.147-0.093c-0.056-0.281-0.15-0.523-0.489-0.557c0.012-0.104-0.003-0.224,0.043-0.309
			c0.032-0.059,0.15-0.068,0.25-0.107c0.037,0.041,0.079,0.09,0.121,0.137c0.243,0.274,0.477,0.244,0.625-0.086
			c0.064-0.143,0.126-0.289,0.167-0.439C17.694,35.5,17.833,35.49,18.06,35.646z"/>
		<path fill-rule="evenodd" clip-rule="evenodd" fill="#8BC03F" d="M18.232,29.722c0.017,0.598,0.017,0.598,0.186,0.635
			c-0.066,0.173-0.16,0.419-0.253,0.665c-0.042-0.067-0.083-0.134-0.124-0.201c-0.208-0.094-0.417-0.188-0.625-0.282
			c0.376-0.056,0.514-0.229,0.453-0.6C17.816,29.625,18.026,29.654,18.232,29.722z"/>
		<path fill-rule="evenodd" clip-rule="evenodd" fill="#8BC03F" d="M14.507,33.458c-0.249-0.164-0.387-0.257-0.526-0.349
			c-0.002-0.033-0.005-0.065-0.007-0.099c0.163-0.004,0.334-0.033,0.485,0.007C14.5,33.029,14.487,33.25,14.507,33.458z"/>
		<path fill-rule="evenodd" clip-rule="evenodd" fill="#8BC03F" d="M17.343,32.319c0.3-0.087,0.599-0.173,0.899-0.26
			c0.015,0.044,0.029,0.089,0.044,0.133c-0.296,0.098-0.592,0.194-0.888,0.292C17.38,32.429,17.362,32.375,17.343,32.319z"/>
		<path fill-rule="evenodd" clip-rule="evenodd" fill="#8BC03F" d="M14.909,32.964c0.245,0.015,0.49,0.03,0.735,0.046
			c-0.005,0.046-0.01,0.091-0.015,0.136c-0.249,0.018-0.503,0.084-0.734-0.054C14.9,33.049,14.905,33.006,14.909,32.964z"/>
		<path fill-rule="evenodd" clip-rule="evenodd" fill="#8BC03F" d="M13.139,31.951c0.086-0.207,0.167-0.4,0.273-0.652
			c0.049,0.054,0.167,0.156,0.155,0.174C13.453,31.65,13.513,32,13.139,31.951z"/>
		<path fill-rule="evenodd" clip-rule="evenodd" fill="#8BC03F" d="M17.313,37.575c0.19,0.284,0.38,0.567,0.57,0.851
			c-0.033,0.022-0.065,0.044-0.098,0.066c-0.189-0.279-0.378-0.561-0.568-0.84C17.249,37.626,17.281,37.601,17.313,37.575z"/>
	</g>
	<path fill-rule="evenodd" clip-rule="evenodd" fill="#8BC03F" d="M31.869,31.158c0.033,0.024,0.068,0.051,0.102,0.076
		c0.127-0.145,0.245-0.298,0.346-0.467c-0.039,0.021-0.078,0.05-0.116,0.061C32.09,30.937,31.979,31.048,31.869,31.158z"/>
	<path fill-rule="evenodd" clip-rule="evenodd" fill="#8BC03F" d="M8.549,13.722c0.394,0.195,0.844-0.044,1.04-0.46
		c0.163-0.346,0.373-0.668,0.598-0.981c0.022-0.125,0.045-0.25,0.08-0.369c0.128-0.436,0.482-0.617,0.877-0.399
		c0.424,0.235,0.818,0.548,1.166,0.888c0.431,0.417,0.794,0.903,1.2,1.347c0.342,0.375,0.748,0.405,1.054,0.105
		c0.288-0.284,0.283-0.681-0.055-1.031c-0.683-0.705-1.274-1.465-1.341-2.484c-0.028-0.43,0.004-0.891,0.134-1.299
		c0.296-0.93,1.189-1.231,1.982-0.655c0.425,0.309,0.761,0.747,1.112,1.151c0.258-0.27,0.339-0.663,0.245-1.226
		c-0.143-0.855,0.425-0.782,0.987-0.598c0.082-0.559,0.365-0.93,0.962-1.169c0.345-0.139,0.706-0.247,1.071-0.321
		c0.585-0.12,1.166-0.266,1.742-0.44c-0.416-0.344-0.828-0.685-1.267-1.047c-0.04,0.154-0.082,0.303-0.176,0.657
		c-0.226-0.417-0.362-0.68-0.508-0.938c-0.167-0.296-0.312-0.616-0.519-0.878c-1.25,0.264-2.402,0.748-3.252,1.802
		c-0.061,0.076-0.238,0.105-0.348,0.085c-0.095-0.016-0.185-0.015-0.278-0.026c0.039,0.031,0.085,0.06,0.122,0.093
		c0.03,0.027-0.12,0.379-0.2,0.384c-0.256,0.017-0.52-0.057-0.821-0.103c0.031-0.147,0.058-0.273,0.085-0.402
		c-1.649,0.086-2.958,1.058-3.534,2.757c-0.151,0.442-0.323,0.65-0.826,0.757c-1.43,0.308-2.107,1.377-2.374,2.724
		c-0.061,0.308-0.087,0.616-0.108,0.923c0.241-0.491,0.585-0.902,0.898-0.97c-0.316,0.701-0.61,1.352-0.902,1.998
		c0.006,0.125,0.005,0.25,0.017,0.375C7.604,13.677,8.21,13.555,8.549,13.722z"/>
	<path fill-rule="evenodd" clip-rule="evenodd" fill="#8BC03F" d="M22.9,2.993c-0.074-0.032-0.189-0.082-0.325-0.141
		c-0.155,0.269-0.219,0.728-0.699,0.435c0.081-0.282,0.155-0.536,0.228-0.791c-0.24,0.135-0.484,0.264-0.737,0.373
		c-0.067,0.086-0.126,0.175-0.151,0.273c-0.07,0.258,0.174,0.601,0.294,0.95c-0.468,0.371-0.459-0.427-0.914-0.428
		c0.099,0.458,0.088,0.971,0.318,1.329c0.183,0.284,0.489,0.487,0.788,0.696c0.145-0.048,0.29-0.082,0.434-0.137
		c0-0.689,0-1.341,0-1.983c0.115-0.002,0.229-0.005,0.345-0.008c0,0.237-0.053,0.489,0.013,0.706
		c0.094,0.307,0.211,0.658,0.434,0.865c0.014,0.014,0.026,0.037,0.04,0.053c0.03-0.016,0.062-0.026,0.092-0.042
		c-0.009,0.044-0.019,0.083-0.028,0.125c0.375,0.54,0.567,1.877,0.214,2.276c-0.073,0.081-0.214,0.146-0.32,0.142
		c-0.085-0.005-0.207-0.109-0.241-0.198c-0.014-0.037-0.026-0.073-0.041-0.111c-0.041,0.457-0.043,0.914-0.012,1.371
		c0.059,0.213,0.202,0.369,0.631,0.233c-0.192,0.101-0.385,0.204-0.578,0.306c0.02,0.142,0.033,0.284,0.058,0.425
		c0.077,0.44,0.377,0.668,0.785,0.609c0.391-0.056,0.649-0.405,0.558-0.824c-0.314-1.449,0.213-2.571,1.33-3.456
		c0.882-0.699,1.791-1.367,2.948-1.538c0.958-0.142,1.534,0.333,1.533,1.305c-0.001,0.461-0.116,0.923-0.184,1.383
		c-0.021,0.146-0.066,0.288-0.085,0.433c-0.058,0.408,0.159,0.732,0.533,0.812c0.347,0.073,0.67-0.139,0.79-0.515
		c0.028-0.091,0.054-0.183,0.08-0.275c-0.397-0.022-0.795-0.056-1.191-0.131c0.411,0,0.821,0.008,1.232,0.011
		c0.023-0.072,0.045-0.145,0.076-0.212c0.476-1.039,1.554-1.282,2.351-0.467c0.146,0.15,0.268,0.329,0.395,0.501
		c0.231-0.028,0.469-0.057,0.687-0.081c-0.215-1.125-0.427-2.236-0.639-3.352c-0.526-0.198-1.106-0.302-1.749-0.288
		c-0.1,0.001-0.24-0.095-0.3-0.186c-0.882-1.339-2.163-1.833-3.696-1.665c-0.73,0.08-1.441,0.33-2.183,0.507
		c-0.022-0.078-0.053-0.205-0.094-0.33c-0.313-0.962-1.472-1.329-2.196-0.632c-0.017,0.015-0.035,0.026-0.051,0.042
		c-0.09,0.246-0.171,0.466-0.24,0.657C22.465,1.96,23.237,2.712,22.9,2.993z"/>
	<path fill-rule="evenodd" clip-rule="evenodd" fill="#8BC03F" d="M37.321,13.829c-0.116-0.188-0.125-0.307-0.003-0.494
		c0.471-0.725,0.693-1.529,0.681-2.393c-0.017-1.192-0.313-2.293-0.782-3.332c-0.571,0.045-1.15,0.091-1.748,0.138
		c0.115,0.206,0.227,0.407,0.49,0.88c-0.662-0.208-1.075-0.347-1.488-0.468c0.08,0.122,0.156,0.241,0.242,0.362
		c-0.448,0.19-0.806,0.301-1.123,0.483c-0.866,0.496-1.729,1.003-2.568,1.545c-0.448,0.29-0.51,0.724-0.232,1.061
		c0.256,0.312,0.666,0.32,1.066,0.011c0.971-0.748,2.029-1.332,3.185-1.733c0.526,0.926,0.204,2.042-0.699,2.483
		c-0.517,0.253-0.786,0.675-0.78,1.251c0.008,0.594,0.307,1.001,0.844,1.252c0.202,0.095,0.389,0.224,0.584,0.337
		c-0.02,0.052-0.039,0.102-0.058,0.153c-0.905-0.122-1.812-0.244-2.719-0.368c-0.131-0.018-0.262-0.051-0.394-0.068
		c-0.417-0.055-0.744,0.163-0.809,0.531c-0.066,0.388,0.131,0.718,0.551,0.794c0.801,0.146,1.609,0.25,2.415,0.372
		c0.061,0.009,0.122,0.017,0.198,0.027c-0.771,0.827-0.768,1.094-0.375,2.16c0.277,0.755,0.398,1.568,0.584,2.357
		c0.049,0.207-0.051,0.307-0.254,0.367c-0.985,0.295-1.932,0.217-2.831-0.28c-0.468-0.259-0.915-0.552-1.371-0.832
		c-0.435-0.266-0.823-0.216-1.055,0.141c-0.228,0.352-0.113,0.739,0.315,1.014c0.348,0.225,0.701,0.44,1.057,0.652
		c1.57,0.934,1.678,3.008,0.209,4.085c-0.107,0.079-0.221,0.147-0.313,0.21c-0.708-0.537-1.396-1.061-2.087-1.58
		c-0.128-0.097-0.264-0.186-0.407-0.256c-0.323-0.156-0.674-0.055-0.869,0.229c0.613,0.452,1.016,1.037,1.289,1.712
		c0.653,0.504,1.233,1.086,1.754,1.735c-0.055-0.459-0.027-0.872,0.139-1.121c0.488,1.357,0.938,2.604,1.385,3.848
		c-0.58-0.253-1.074-1.064-1.343-1.9c-0.021,0.045-0.039,0.091-0.067,0.133c-0.105,0.16-0.381,0.273-0.587,0.285
		c-0.285,0.018-0.581-0.068-0.866-0.129c-0.496-0.105-0.99-0.221-1.482-0.342c-0.686-0.17-1.295-0.482-1.834-0.945
		c-0.374-0.322-0.763-0.633-1.168-0.912c-0.354-0.244-0.731-0.162-0.955,0.152c-0.232,0.326-0.154,0.707,0.199,0.979
		c0.256,0.195,0.511,0.391,0.767,0.582c0.412,0.307,0.595,0.695,0.586,1.145c0.785,0,1.505,0,2.347,0
		c-1.023,0.586-1.823,0.691-2.388,0.313c-0.007,0.035-0.005,0.068-0.015,0.105c-0.166,0.648-0.599,1.052-1.225,1.217
		c0.303,0.139,0.604,0.289,0.858,0.495c0.104,0.085,0.017,0.409,0.017,0.645c-0.45-0.22-0.774-0.36-1.08-0.533
		c-0.135-0.077-0.33-0.231-0.32-0.334c0.006-0.062,0.056-0.142,0.111-0.214c-1.379,0.094-2.773-1.07-2.874-2.511
		c-0.024-0.358,0.004-0.721,0.019-1.081c0.015-0.433-0.203-0.733-0.579-0.777c-0.388-0.047-0.712,0.17-0.765,0.593
		c-0.061,0.5-0.056,1.01-0.081,1.571c-1.03-0.095-1.844,0.375-2.471,1.098c-0.017,0.018-0.035,0.033-0.051,0.052
		c0.194,0.29,0.388,0.581,0.583,0.87c-0.089,0.061-0.179,0.121-0.269,0.18c-0.182-0.268-0.365-0.538-0.547-0.807
		c-0.838,0.813-1.847,1.177-3.029,1.229c-0.907,0.04-1.813,0.134-2.719,0.2c-0.046,0.004-0.094-0.01-0.227-0.023
		c0.502-0.516,0.933-1.004,1.412-1.443c0.996-0.913,1.959-1.866,3.047-2.67c-0.209-0.121-0.344-0.164-0.357-0.227
		c-0.079-0.397-0.188-0.766-0.399-1.043c-0.622,0.617-1.272,1.213-1.953,1.783c-2.34,1.963-4.331,4.287-6.387,6.536
		c-0.174,0.19-0.299,0.259-0.528,0.104c-0.253-0.169-0.529-0.305-0.829-0.475c0.961-0.877,1.891-1.732,2.829-2.58
		c1.498-1.354,2.973-2.734,4.508-4.046c0.639-0.547,1.237-1.124,1.803-1.723c-0.116-0.041-0.242-0.075-0.389-0.089
		c0.031-0.288-0.01-0.615,0.119-0.85c0.088-0.159,0.414-0.189,0.688-0.297c0.1,0.114,0.215,0.247,0.332,0.379
		c0.003,0.004,0.006,0.006,0.009,0.01c1.526-1.784,2.771-3.772,3.753-5.962c0.732-1.631,1.487-3.258,2.329-4.834
		c0.576-1.079,1.311-2.075,1.997-3.091c0.296-0.439,0.315-0.838-0.021-1.098c-0.317-0.246-0.729-0.155-1.043,0.229
		c-1.502,1.84-2.532,3.953-3.525,6.087c-0.394,0.848-0.792,1.693-1.189,2.54c-0.056,0.116-0.122,0.227-0.216,0.4
		c-0.233-1.224-0.64-2.301-1.307-3.272c-0.083-0.121-0.166-0.244-0.259-0.357c-0.274-0.337-0.682-0.41-0.989-0.186
		c-0.32,0.235-0.365,0.625-0.113,0.995c0.112,0.167,0.238,0.324,0.343,0.494c0.703,1.141,1.12,2.366,1.02,3.723
		c-0.077,1.036-0.51,1.948-1.186,2.708c-0.879,0.987-1.795,1.947-2.756,2.854c-1.916,1.805-3.874,3.566-5.817,5.348
		c-0.175-0.107-0.328-0.211-0.49-0.299c-0.313-0.173-0.421-0.436-0.353-0.774c0.073-0.358,0.326-0.378,0.639-0.361
		c0.952,0.05,1.629-0.755,1.431-1.672c-0.086-0.399,0.011-0.51,0.428-0.481c0.146,0.008,0.295,0.039,0.438,0.022
		c0.827-0.097,1.362-0.86,1.183-1.677c-0.02-0.09-0.036-0.181-0.057-0.287c0.333-0.033,0.65-0.07,0.969-0.092
		c0.73-0.053,1.219-0.401,1.391-1.005c0.176-0.62-0.042-1.147-0.65-1.578c-1.014-0.718-1.142-2.06-0.275-2.881
		c0.691-0.657,1.896-0.58,2.499,0.159c0.288,0.354,0.657,0.422,0.981,0.184c0.301-0.223,0.363-0.605,0.141-0.966
		c-0.112-0.182-0.241-0.354-0.378-0.518c-1.713-2.034-2.433-4.422-2.558-7.017c-0.115,0.204-0.286,0.368-0.606,0.664
		c-0.497,0.461-1.491,0.78-1.838,0.588c-0.079,0.001-0.156,0.002-0.234,0.003c0.076,0.583,0.183,1.165,0.322,1.742
		c0.025,0.104,0.061,0.206,0.088,0.31c0.196-0.12,0.391-0.238,0.608-0.371c0.152,0.15,0.238,0.352,0.272,0.575
		c0.587,0.038,1.174,0.075,1.761,0.113c-0.014,0.125-0.027,0.249-0.041,0.375c-0.582,0.039-1.175,0.173-1.73-0.02
		c-0.031,0.151-0.083,0.305-0.165,0.458c-0.143-0.051-0.283-0.1-0.425-0.151c0.122,0.385,0.248,0.77,0.366,1.158
		c-2.057,1.356-2.833,3.206-2.094,5.648c-0.83,0.065-1.169,0.639-1.406,1.313c-0.053,0.15-0.116,0.308-0.12,0.464
		c-0.006,0.337-0.198,0.481-0.485,0.587c-0.602,0.221-0.958,0.635-1.038,1.298c-0.023,0.192-0.169,0.451-0.332,0.532
		c-0.923,0.452-1.437,1.221-1.727,2.156c-0.283,0.914-0.101,1.794,0.345,2.651c-0.33,0.251-0.646,0.494-0.963,0.735
		c-1.004,0.764-0.933,1.871,0.166,2.49c1.07,0.604,2.146,1.199,3.219,1.795c1.009,0.561,1.469,0.537,2.356-0.215
		c0.394-0.334,0.747-0.728,1.07-1.133c0.816-1.02,1.819-1.67,3.155-1.751c0.946-0.058,1.893-0.132,2.837-0.219
		c1.621-0.147,3.077-0.67,4.194-1.919c0.179-0.199,0.334-0.42,0.5-0.631c0.06,0.001,0.12,0.002,0.179,0.003
		c0.081,0.124,0.135,0.286,0.247,0.367c0.625,0.452,1.219,0.978,1.905,1.308c2.676,1.283,5.321,0.148,6.37-1.912
		c0.044-0.086,0.255-0.146,0.372-0.127c0.474,0.08,0.936,0.22,1.41,0.293c1.263,0.199,2.363-0.166,3.11-0.893
		c-0.111-0.205-0.217-0.409-0.309-0.617c-0.222-0.505,0.346-1.371,0.921-1.557c0.156-0.05,0.287-0.133,0.393-0.24
		c0.006-0.238-0.002-0.482-0.039-0.735c-0.021-0.149,0.054-0.358,0.156-0.474c0.041-0.045,0.075-0.094,0.114-0.139
		c-0.251-0.739-0.386-1.516-0.462-2.3c0.588,0.853,0.84,1.229,0.941,1.645c0.24-0.388,0.428-0.802,0.526-1.259
		c0.097-0.452,0.11-0.922,0.163-1.413c0.078-0.019,0.185-0.032,0.281-0.072c0.649-0.269,1.314-0.51,1.941-0.823
		c0.459-0.231,0.659-0.672,0.688-1.193c0.063-1.185-0.028-2.352-0.405-3.482c-0.077-0.23-0.008-0.357,0.146-0.517
		C38.057,16.993,38.236,15.315,37.321,13.829z"/>
	<path fill-rule="evenodd" clip-rule="evenodd" fill="#8BC03F" d="M36.016,5.54c-0.343-0.458-0.731-0.842-1.168-1.144
		c0.011,0.199,0.037,0.389,0.125,0.546C35.135,5.232,35.587,5.362,36.016,5.54z"/>
	<path fill-rule="evenodd" clip-rule="evenodd" fill="#8BC03F" d="M34.853,6.136c0.577,0.386,1.094,0.942,1.708,1.085
		c0.159,0.038,0.324,0.051,0.493,0.05c-0.231-0.47-0.493-0.93-0.783-1.377c-0.017-0.026-0.036-0.049-0.054-0.075
		C36.011,6.376,35.297,5.708,34.853,6.136z"/>
	<path fill-rule="evenodd" clip-rule="evenodd" fill="#8BC03F" d="M26.354,14.139c1.049-0.661,1.922-1.513,2.691-2.466
		c0.037-0.542,0.277-0.893,0.731-1.041c0.099-0.295,0.017-0.583-0.239-0.767c-0.318-0.23-0.721-0.174-0.979,0.202
		c-0.992,1.453-2.313,2.54-3.766,3.497c-2.041,1.345-3.647,3.124-5.002,5.14c-0.507,0.753-1.026,1.502-1.487,2.285
		c-0.566,0.961-1.197,1.867-1.856,2.748c0.192-0.025,0.428,0.07,0.718,0.271c-1.012,0.777-1.6,1.574-1.15,2.82
		c0.047,0.131,0.048,0.254,0.013,0.363c0.261-0.214,0.506-0.455,0.749-0.688c0.909-0.869,1.915-1.523,3.023-1.953
		c-0.061-0.205-0.082-0.471-0.043-0.822c0.245,0.227,0.459,0.424,0.662,0.61c0.578-0.174,1.18-0.296,1.814-0.35
		c0.17-0.015,0.355-0.034,0.503-0.109c0.315-0.159,0.411-0.444,0.331-0.78c-0.079-0.327-0.391-0.557-0.773-0.484
		c-0.967,0.182-1.927,0.407-2.888,0.62c-0.113,0.024-0.218,0.081-0.384,0.044c0.428-0.346,0.837-0.717,1.287-1.031
		c1.196-0.838,2.566-1.299,3.938-1.752c1.482-0.49,2.97-0.968,4.453-1.454c0.51-0.167,0.719-0.52,0.564-0.929
		c-0.148-0.39-0.49-0.541-0.96-0.377c-2.058,0.716-4.176,1.269-6.201,2.076c0.012,0.284-0.019,0.634-0.103,1.071
		c-0.119-0.293-0.236-0.587-0.361-0.877c-0.467,0.197-0.93,0.404-1.383,0.637c-0.008,0.004-0.023-0.005-0.074-0.018
		c0.052-0.091,0.096-0.177,0.146-0.259c0.277-0.451,0.572-0.884,0.876-1.308c-0.017-0.038-0.034-0.074-0.052-0.111
		c0.051-0.009,0.093-0.007,0.14-0.01C22.672,17.042,24.326,15.415,26.354,14.139z"/>
	<path fill-rule="evenodd" clip-rule="evenodd" fill="#8BC03F" d="M14.042,27.236c0.131,0.412,0.21,0.66,0.336,1.057
		c0.331-0.242,0.677-0.464,1.036-0.673c-0.104,0.007-0.213,0.002-0.325-0.032C14.785,27.496,14.487,27.386,14.042,27.236z"/>
	<path fill-rule="evenodd" clip-rule="evenodd" fill="#8BC03F" d="M18.505,10.932c0.299-0.299,0.277-0.694-0.095-1.056
		c-0.108-0.106-0.202-0.218-0.291-0.331c-0.146,0.385-0.335,0.88-0.534,1.4C17.894,11.187,18.253,11.185,18.505,10.932z"/>
	<path fill-rule="evenodd" clip-rule="evenodd" fill="#8BC03F" d="M17.674,8.664c0.037,0.616,0.112,0.707,0.363,0.771
		C17.87,9.199,17.748,8.943,17.674,8.664z"/>
	<path fill-rule="evenodd" clip-rule="evenodd" fill="#8BC03F" d="M15.951,24.375c-0.507,0.639-1.04,1.258-1.599,1.854
		c0.451,0.19,0.859-0.029,1.149-0.674C15.674,25.169,15.839,24.779,15.951,24.375z"/>
	<path fill-rule="evenodd" clip-rule="evenodd" fill="#8BC03F" d="M21.84,6.145c0.055-0.078,0.109-0.155,0.164-0.233
		c-0.096-0.077-0.199-0.151-0.303-0.223c-0.1,0.033-0.199,0.064-0.299,0.094C21.545,5.901,21.696,6.026,21.84,6.145z"/>
	<path fill-rule="evenodd" clip-rule="evenodd" fill="#8BC03F" d="M18.692,3.107c-0.41-0.357-0.786-0.753-1.177-1.132
		c0.397,0.564,0.909,1.013,1.361,1.516c0.022,0.025,0.036,0.059,0.057,0.085c0.09-0.019,0.18-0.039,0.27-0.055
		C19.032,3.387,18.859,3.252,18.692,3.107z"/>
	<path fill-rule="evenodd" clip-rule="evenodd" fill="#8BC03F" d="M6.866,9.071C6.701,9.227,6.638,9.49,6.529,9.706
		c0.203-0.004,0.405-0.008,0.624-0.013c0.024,0.477,0.05,1.015,0.076,1.553c0.556-0.856,0.875-1.729,0.496-2.755
		C7.428,8.685,7.111,8.84,6.866,9.071z"/>
	<path fill-rule="evenodd" clip-rule="evenodd" fill="#8BC03F" d="M8.464,16.985c0.094,0.056,0.19,0.097,0.288,0.13
		c0.034-0.164,0.032-0.319,0.009-0.468c-0.086-0.005-0.173-0.011-0.26-0.017C8.489,16.749,8.477,16.866,8.464,16.985z"/>
	<path fill-rule="evenodd" clip-rule="evenodd" fill="#8BC03F" d="M6.967,16.999c0.372,0.132,0.78,0.276,1.195,0.423
		c-0.103-0.324-0.194-0.651-0.281-0.979C7.541,16.65,7.224,16.842,6.967,16.999z"/>
	<path fill-rule="evenodd" clip-rule="evenodd" fill="#8BC03F" d="M5.897,18.334c0.574-0.12,1.148-0.24,1.722-0.358
		c-0.006-0.066-0.014-0.131-0.02-0.197c-0.365-0.102-0.725-0.262-1.095-0.294C5.926,17.437,5.684,17.798,5.897,18.334z"/>
	<path fill-rule="evenodd" clip-rule="evenodd" fill="#8BC03F" d="M15.064,3.727c0.431,0.631,0.927,0.024,1.44,0.14
		C15.998,3.253,15.52,3.225,15.064,3.727z"/>
	<path fill-rule="evenodd" clip-rule="evenodd" fill="#8BC03F" d="M5.476,11.585C5,11.125,4.61,10.746,4.152,10.302
		C4.081,10.917,4.535,11.346,5.476,11.585z"/>
	<path fill-rule="evenodd" clip-rule="evenodd" fill="#8BC03F" d="M2.565,10.558c-0.053,0.045-0.031,0.211-0.002,0.313
		c0.066,0.228,0.158,0.448,0.273,0.767c0.111-0.114,0.307-0.23,0.295-0.321c-0.034-0.275-0.138-0.544-0.245-0.803
		C2.874,10.484,2.639,10.496,2.565,10.558z"/>
	<path fill-rule="evenodd" clip-rule="evenodd" fill="#8BC03F" d="M17.577,0c-0.202,0.042-0.392,0.082-0.775,0.161
		c0.389,0.314,0.635,0.511,0.826,0.666C17.61,0.541,17.594,0.284,17.577,0z"/>
</symbol>

<symbol id = "sauce" viewBox="0 0 40.189 43.416">
	<path fill="#E35028" d="M15.407,6.22c0.04,0.091,0.187,0.22,0.244,0.201c0.109-0.033,0.259-0.151,0.271-0.249
		c0.099-0.81-0.205-1.502-0.67-2.23c-0.123,0.478-0.505,0.797-0.236,1.281C15.186,5.531,15.264,5.893,15.407,6.22z"/>
	<path fill="#E35028" d="M23.878,9.649c0.145-0.379,0.288-0.758,0.39-1.024c-0.261-0.056-0.261-0.056-0.287-0.978
		c-0.316-0.105-0.64-0.151-0.56,0.332c0.096,0.571-0.117,0.839-0.697,0.927c0.32,0.145,0.642,0.289,0.963,0.434
		C23.75,9.443,23.814,9.547,23.878,9.649z"/>
	<path fill="#E35028" d="M27.277,16.735c0.411,0.082,0.82,0.165,1.319,0.265c-0.114-0.251-0.164-0.358-0.196-0.428
		c0.191-0.11,0.34-0.196,0.565-0.324C27.794,15.881,27.535,15.967,27.277,16.735z"/>
	<path fill="#E35028" d="M26.941,7.63c0.061,0.003,0.139-0.033,0.18-0.079c0.217-0.244,0.07-1.121-0.178-1.352
		c-0.125-0.116-0.189-0.313-0.242-0.484c-0.037-0.122-0.008-0.264-0.008-0.396C26.628,5.32,26.564,5.322,26.5,5.324
		c0,0.434,0,0.868,0,1.349c0.084,0.231,0.189,0.542,0.308,0.846C26.826,7.568,26.894,7.627,26.941,7.63z"/>
	<path fill="#E35028" d="M27.13,8.355c-0.517,0.164-0.307-0.422-0.432-0.479c-0.27,0.35-0.506,0.659-0.743,0.968
		c0.015,0.036,0.03,0.073,0.046,0.107C26.377,8.754,26.753,8.555,27.13,8.355z"/>
	<path fill="#E35028" d="M24.064,11.452c-0.021-0.068-0.045-0.137-0.066-0.205c-0.462,0.135-0.924,0.268-1.385,0.401
		c0.028,0.084,0.057,0.17,0.085,0.254C23.154,11.752,23.609,11.603,24.064,11.452z"/>
	<path fill="#E35028" d="M19.971,12.924c0.007-0.07,0.015-0.141,0.023-0.21c-0.377-0.024-0.755-0.048-1.132-0.072
		c-0.007,0.065-0.015,0.132-0.021,0.198C19.196,13.05,19.588,12.949,19.971,12.924z"/>
	<path fill="#E35028" d="M9.639,23.044c0.004,0.052,0.007,0.102,0.011,0.153c0.214,0.142,0.428,0.283,0.811,0.536
		c-0.031-0.32-0.009-0.66-0.074-0.678C10.153,22.993,9.89,23.039,9.639,23.044z"/>
	<path fill="#E35028" d="M11.06,23.17c0.355,0.21,0.748,0.109,1.13,0.084c0.007-0.07,0.015-0.141,0.023-0.21
		c-0.377-0.024-0.755-0.048-1.132-0.072C11.074,23.037,11.066,23.104,11.06,23.17z"/>
	<path fill="#E35028" d="M0.862,29.643C0.533,29.783,0.276,30.092,0,30.317c0.323,0.133,0.646,0.355,0.981,0.376
		c0.277,0.018,0.627-0.144,0.829-0.344c0.11-0.109,0.047-0.631-0.058-0.673C1.488,29.569,1.116,29.533,0.862,29.643z"/>
	<path fill="#E35028" d="M3.274,34.769c0.627,0.675,1.254,1.35,1.881,2.024c0.067-0.066,0.134-0.133,0.201-0.199
		c-0.604-0.694-1.207-1.389-1.811-2.083C3.455,34.596,3.364,34.683,3.274,34.769z"/>
	<path fill="#E35028" d="M13.015,43.416c0.917-0.083,1.497-0.137,1.949-0.178c-0.391-0.357-0.742-0.677-1.129-1.029
		C13.62,42.524,13.42,42.818,13.015,43.416z"/>
	<path fill="#E35028" d="M15.245,22.124c0.346-0.113,0.693-0.228,1.039-0.342c-0.022-0.068-0.045-0.137-0.067-0.205
		c-0.338,0.099-0.677,0.196-1.015,0.294l-0.695-3.999c-0.069-0.4-0.293-0.734-0.598-0.956c0.22-0.03,0.465,0,0.746,0.124
		c0.057-0.205,0.196-0.429,0.142-0.584c-0.068-0.193-0.282-0.347-0.457-0.49c-0.121-0.099-0.279-0.149-0.421-0.223
		c-0.02,0.043-0.04,0.086-0.06,0.129c0.157,0.19,0.313,0.381,0.45,0.548c-0.352,0.435-0.91-0.16-1.158,0.22
		c-0.125-0.011-0.25-0.011-0.379,0.012c-0.816,0.143-1.363,0.918-1.221,1.734l2.526,14.533c0.142,0.816,0.918,1.362,1.735,1.221
		c0.816-0.143,1.363-0.919,1.221-1.734L15.245,22.124z"/>
	<path fill="#E35028" d="M31.696,34.834c-0.143,0.109,0.253,1.356,0.429,1.363c0.635,0.028,1.281-0.254,2.143-0.475
		c-0.225-0.877-0.358-1.401-0.492-1.925C33.068,34.124,32.299,34.37,31.696,34.834z"/>
	<path fill="#E35028" d="M39.365,6.225c0.095-0.47,0.205-0.937,0.316-1.403c0.183-0.768,0.372-1.561,0.488-2.359
		c0.071-0.479-0.048-1.523-0.526-1.811l-0.085-0.043c-0.586-0.234-1.461,0.01-1.936,0.368c-0.845,0.64-1.654,1.345-2.438,2.026
		c-0.411,0.358-0.822,0.717-1.239,1.066c-0.167,0.141-0.308,0.227-0.38,0.258c-1.369-0.553-1.945,0.453-2.385,1.221L30.994,5.88
		c-0.252,0.451-0.49,0.877-0.788,1.254c-0.143,0.182-0.432,0.346-0.618,0.355c-1.404,0.061-2.48,0.693-3.195,1.881l-3.558,5.909
		c-0.472,0.783-0.942,1.566-1.413,2.35c-0.078,0.024-0.145,0.052-0.172,0.1c-0.043,0.08-0.052,0.179-0.056,0.279
		c-0.572,0.951-1.144,1.901-1.715,2.853l0.732,4.373c0.613-1.02,1.227-2.039,1.84-3.059l0.908-1.51
		c0.112,0.164,0.223,0.329,0.335,0.493c0.05-0.033,0.101-0.067,0.15-0.101c-0.126-0.189-0.253-0.378-0.38-0.567l0.361-0.599
		l1.406-2.338c0.115-0.19,0.229-0.38,0.344-0.57c0.069,0.414,0.385,0.465,0.709,0.505c0.034-0.038,0.068-0.076,0.104-0.115
		c-0.204-0.188-0.42-0.386-0.674-0.62c0.361-0.6,0.723-1.198,1.084-1.798c0.009,0.023,0.019,0.046,0.028,0.069
		c0.011-0.057,0.009-0.092,0.017-0.144c0.752-1.251,1.504-2.502,2.26-3.751c0.52-0.859,0.709-0.908,1.559-0.402
		c0.137,0.081,0.271,0.162,0.406,0.243c0.319-0.659,0.638-1.318,0.957-1.977c0.134,0.93,0.268,1.859,0.402,2.79
		c0.213,0.128,0.427,0.254,0.641,0.383c0.781,0.47,1.561,0.941,2.339,1.416c0.827,0.505,0.874,0.71,0.355,1.572
		c-0.958,1.595-1.919,3.188-2.878,4.781c-0.008,0.443-0.016,0.907-0.025,1.419c-0.258-0.132-0.451-0.247-0.611-0.361
		c-2.326,3.866-4.651,7.733-6.98,11.599c-0.55,0.912-0.733,0.959-1.637,0.421c-0.625-0.373-1.248-0.752-1.872-1.127
		c-0.266-1.536-0.532-3.072-0.799-4.608c0.087,0.018,0.164,0.033,0.256,0.052c-0.114-0.251-0.164-0.358-0.196-0.428
		c0.191-0.11,0.339-0.196,0.565-0.324c-0.326-0.103-0.576-0.165-0.78-0.192c-0.002-0.013-0.004-0.026-0.007-0.039l-0.526-3.025
		c-0.162-0.93-0.319-1.86-0.477-2.791c-0.095-0.564-0.197-1.142-0.294-1.713c0.083-0.044,0.167-0.088,0.25-0.132
		c-0.134,0.043-0.218,0.033-0.273-0.003c-0.074-0.436-0.147-0.867-0.224-1.305c0.054,0.151,0.112,0.311,0.174,0.471
		c0.019,0.05,0.087,0.108,0.134,0.111c0.06,0.003,0.139-0.033,0.18-0.079c0.216-0.244,0.069-1.121-0.178-1.352
		c-0.125-0.116-0.19-0.313-0.243-0.484c-0.037-0.122-0.007-0.264-0.007-0.396c-0.064,0.002-0.129,0.004-0.194,0.006
		c0,0.313,0,0.633,0,0.964c-0.198-1.107-0.407-2.217-0.63-3.316c0.05,0.033,0.097,0.064,0.153,0.102
		c-0.031-0.32-0.009-0.66-0.074-0.678c-0.067-0.018-0.14-0.015-0.211-0.018c-0.204-0.711-0.646-1.623-1.282-2.042
		c0.033-0.115,0.062-0.232,0.119-0.322c0.019-0.028-0.163-0.186-0.238-0.269c-0.065,0.156-0.122,0.291-0.178,0.426
		c-1.028-0.455-1.14-1.187-1.294-2.249l-0.038-0.284c-0.042-0.35-0.087-0.709-0.223-1.053c-0.131-0.331-0.49-1.101-0.995-1.1
		c-0.65,0.002-0.853-0.354-1.154-0.984c-0.069-0.146-0.139-0.291-0.216-0.428c-0.235-0.417-0.457-0.842-0.679-1.268
		c-0.364-0.699-0.742-1.424-1.176-2.104C10.344,0.624,9.57-0.087,9.02,0.009L8.927,0.032C8.332,0.239,7.829,0.995,7.705,1.578
		C7.486,2.614,7.335,3.677,7.19,4.705c-0.076,0.54-0.152,1.08-0.238,1.618C6.917,6.538,6.868,6.694,6.833,6.767
		C5.437,7.244,5.66,8.384,5.83,9.251l0.076,0.373c0.104,0.506,0.203,0.983,0.226,1.463c0.011,0.23-0.1,0.545-0.235,0.674
		c-1.022,0.966-1.42,2.148-1.183,3.515l0.003,0.018c0.886,1.166,1.79,2.354,2.748,3.615c-0.191,0.257-0.497,0.669-0.803,1.081
		c-0.4-0.366-0.771-0.771-1.205-1.091c-0.052-0.038-0.087-0.086-0.136-0.126l0.573,3.299c0.249,1.432,0.5,2.864,0.749,4.297
		c-0.029-0.023-0.058-0.05-0.085-0.072c-0.121-0.099-0.279-0.149-0.421-0.223c-0.02,0.043-0.04,0.086-0.06,0.129
		c0.157,0.19,0.313,0.381,0.45,0.548c-0.395,0.487-1.053-0.33-1.237,0.4c-0.101,0.399-0.769,0.645-0.183,1.267
		c-0.307-0.118-0.456-0.176-0.604-0.232c-0.023,0.048-0.047,0.096-0.07,0.145c0.18,0.078,0.366,0.147,0.537,0.242
		c0.092,0.051,0.182,0.136,0.227,0.228c0.019,0.039-0.08,0.135-0.125,0.206c-0.043,0.07-0.132,0.146-0.122,0.208
		c0.054,0.324-0.13,0.381-0.39,0.403c-0.193,0.015-0.383,0.071-0.574,0.11c0.009,0.047,0.018,0.093,0.027,0.141
		c0.5,0,0.999,0,1.503,0c-0.025-0.233-0.051-0.413-0.062-0.595c-0.023-0.39-0.041-0.778-0.056-1.168
		c-0.005-0.125-0.042-0.279,0.014-0.37c0.307-0.497,0.781-0.635,1.402-0.382c0.5,2.873,0.997,5.746,1.501,8.619
		c0.393,2.233,2.115,3.433,4.387,3.057c0.858-0.143,1.715-0.289,2.571-0.438c0.995-0.173,1.989-0.35,2.982-0.525l0.124-0.021
		c1.011-0.18,1.79-0.576,2.345-1.14c-0.047-0.25-0.095-0.502-0.143-0.751c0.123-0.058,0.248-0.116,0.371-0.174
		c0.066,0.13,0.131,0.261,0.195,0.392c0.4-0.638,0.592-1.422,0.531-2.343l0.262,1.564c0.465,0.264,0.92,0.429,1.363,0.528
		c0.042-0.133,0.078-0.253,0.134-0.403c0.073,0.165,0.144,0.319,0.208,0.466c1.438,0.188,2.718-0.494,3.649-2.036
		c1.175-1.945,2.347-3.892,3.518-5.84c-0.247-0.19-0.5-0.371-0.742-0.567c-0.2-0.163-0.094-0.707-0.13-1.075
		c0.643-0.031,1.293-0.123,1.928-0.112l0.708-1.176c0.486-0.81,0.978-1.616,1.468-2.423c1.299-2.135,2.643-4.344,3.889-6.563
		c0.4-0.715,0.845-2.088,0.422-2.936c-0.523-1.052-0.119-1.683,0.471-2.604l0.158-0.24c0.195-0.291,0.398-0.593,0.521-0.941
		c0.117-0.336,0.35-1.152-0.033-1.482c-0.492-0.424-0.412-0.826-0.227-1.5C39.291,6.534,39.333,6.379,39.365,6.225z M22.253,21.327
		c-0.174-0.167-0.514-0.361-0.49-0.495c0.056-0.332,0.277-0.637,0.547-1.188c0.049,0.071,0.097,0.132,0.144,0.193
		c-0.012,0.01-0.024,0.02-0.036,0.029c0.131,0.193,0.264,0.388,0.395,0.582C22.693,20.765,22.449,21.037,22.253,21.327z
		 M12.177,8.852l0.221,1.271L9.077,10.7L8.856,9.429L12.177,8.852z M9.399,2.726l2.117,3.242L8.501,6.491L9.399,2.726z
		 M17.806,35.215c-1.782,0.317-3.565,0.628-5.352,0.931c-1.03,0.174-1.17,0.07-1.358-1.002c-0.307-1.752-0.611-3.505-0.915-5.257
		c-0.208,0.055-0.436,0.114-0.708,0.188c0.188-0.518,0.344-0.966,0.499-1.39c-0.051-0.296-0.104-0.593-0.155-0.89l-0.456-2.625
		l-0.468-2.689c-0.066-0.378-0.131-0.757-0.197-1.135c0.2-0.144,0.189-0.476,0.316-0.673c0.019-0.028-0.163-0.186-0.238-0.269
		c-0.063,0.149-0.117,0.278-0.17,0.407c-0.237-1.359-0.472-2.719-0.707-4.078c0.105-0.042,0.232-0.143,0.243-0.232
		c0.092-0.755-0.173-1.408-0.585-2.084c0.033-0.406,0.286-0.528,0.973-0.651c0.919-0.164,1.839-0.327,2.76-0.487
		c0.898-0.155,1.797-0.31,2.696-0.46c0.956-0.161,1.125-0.037,1.299,0.955c0.241,1.384,0.48,2.768,0.722,4.152
		c-0.237-0.047-0.427,0.002-0.363,0.383c0.096,0.571-0.117,0.839-0.697,0.927c0.321,0.145,0.642,0.289,0.962,0.434
		c0.064,0.104,0.127,0.207,0.191,0.31c0.062-0.162,0.123-0.321,0.181-0.476c0.443,2.55,0.887,5.099,1.329,7.648
		c-0.073-0.067-0.138-0.127-0.22-0.203c-0.055,0.5,0.098,0.694,0.321,0.784c0.353,2.031,0.708,4.062,1.059,6.092
		C18.948,34.874,18.841,35.03,17.806,35.215z M35.574,10.509L32.685,8.77l0.666-1.105l2.889,1.739L35.574,10.509z M37.627,6.79
		l-2.622-1.578l3.146-2.258L37.627,6.79z"/>
	<path fill="#E35028" d="M22.427,30.894c0.709,0.428,1.631,0.198,2.058-0.512l7.606-12.637c0.428-0.711,0.199-1.631-0.512-2.059
		c-0.709-0.428-1.631-0.198-2.058,0.512l-7.606,12.637C21.488,29.546,21.716,30.466,22.427,30.894z"/>
</symbol>

<symbol id ="cucumber"  viewBox="0 0 42 37.754">
	<path fill-rule="evenodd" clip-rule="evenodd" fill="#8BC03F" d="M1.784,16.222c0.452-0.292,0.909-0.578,1.367-0.861
		c0.146-0.091,0.306-0.24,0.454-0.234c0.832,0.032,1.333,0.529,1.428,1.508c0.286-0.072,0.649-0.056,0.798-0.226
		c0.188-0.213,0.226-0.575,0.28-0.881c0.037-0.212-0.01-0.438-0.018-0.658c-0.066,0.005-0.13,0.01-0.195,0.016
		c-0.123,0.317-0.246,0.635-0.353,0.912c-0.855-0.144-0.319-1.49-1.321-1.215c-0.548,0.15-1.297-0.487-1.648,0.64
		c-0.066-0.45-0.098-0.667-0.13-0.885c-0.073,0.004-0.147,0.009-0.221,0.013c0.026,0.271,0.07,0.541,0.072,0.811
		c0.002,0.145-0.039,0.311-0.119,0.427c-0.034,0.05-0.217-0.003-0.333-0.009c-0.113-0.005-0.266-0.06-0.332-0.006
		c-0.354,0.284-0.547,0.103-0.75-0.194c-0.15-0.221-0.347-0.412-0.522-0.615c-0.051,0.043-0.101,0.085-0.15,0.128
		c0.338,0.601,0.678,1.201,1.02,1.808C1.375,16.511,1.574,16.357,1.784,16.222z"/>
	<path fill-rule="evenodd" clip-rule="evenodd" fill="#8BC03F" d="M9.167,27.649c0.667-0.776,1.429-0.684,2.338-0.298
		c0.052-0.583-0.111-0.829-0.687-0.683c-0.322,0.081-0.656,0.119-0.988,0.148c-0.376,0.035-0.638-0.047-0.779-0.223
		c0.103-0.137,0.141-0.299,0.113-0.492c-0.02-0.133-0.076-0.248-0.147-0.354c0.043-0.127,0.089-0.255,0.128-0.365
		c-0.177-0.143-0.32-0.352-0.462-0.351c-0.207,0.003-0.412,0.155-0.617,0.243c0.015,0.035,0.022,0.066,0.034,0.099
		c-0.196,0.065-0.398,0.124-0.516,0.258c-0.396,0.448-0.758,0.938-1.064,1.452c-0.187,0.314-0.05,0.648,0.258,0.868
		c0.294,0.21,0.694,0.175,0.942-0.103c0.18-0.203,0.313-0.448,0.485-0.66c0.018-0.021,0.042-0.041,0.062-0.062
		c0.012,0.062,0.024,0.126,0.037,0.185C8.405,27.764,8.89,27.973,9.167,27.649z"/>
	<path fill-rule="evenodd" clip-rule="evenodd" fill="#8BC03F" d="M22.661,21.474c-0.09-0.453-0.254-0.871-0.78-0.447
		c-0.622,0.503-1.088,0.429-1.587-0.209c0.044,0.483,0.088,0.967,0.132,1.451c-0.081,0.146-0.162,0.293-0.243,0.439
		c0.554-0.082,1.108-0.167,1.498-0.227C21.571,22.132,21.571,22.132,22.661,21.474z"/>
	<path fill-rule="evenodd" clip-rule="evenodd" fill="#8BC03F" d="M18.342,23.937c-0.474-0.465-0.947-0.928-1.421-1.393
		c-0.082,0.092-0.165,0.184-0.248,0.275c0.49,0.446,0.979,0.893,1.469,1.338C18.208,24.084,18.275,24.011,18.342,23.937z"/>
	<path fill-rule="evenodd" clip-rule="evenodd" fill="#8BC03F" d="M16.432,28.114c-0.165,0.23-0.325,0.46-0.493,0.684
		c-0.158,0.211-0.325,0.416-0.488,0.623C16.587,29.038,16.853,28.629,16.432,28.114z"/>
	<path fill-rule="evenodd" clip-rule="evenodd" fill="#8BC03F" d="M35.872,23.229c-0.58-0.075-0.832,0.081-0.708,0.661
		c0.069,0.323,0.095,0.66,0.113,0.992c0.042,0.769-0.368,1.055-1.097,0.773c-0.126-0.049-0.252-0.099-0.362-0.143
		c-0.149,0.172-0.363,0.307-0.366,0.449c-0.006,0.206,0.139,0.416,0.22,0.626c0.671-0.271,1.088,0.097,1.468,0.573
		c0.033,0.043,0.152,0.017,0.369,0.031c-0.248-0.247-0.391-0.39-0.637-0.637c0.357-0.055,0.603-0.086,0.845-0.131
		c0.453-0.084,0.679-0.561,0.367-0.85C35.333,24.88,35.453,24.122,35.872,23.229z"/>
	<path fill-rule="evenodd" clip-rule="evenodd" fill="#8BC03F" d="M41.489,20.009c0.165-0.256,0.293-0.455,0.488-0.755
		c-1.67,0.292-1.932,0.562-1.762,1.668c0.556-0.159,1.109-0.317,1.785-0.513C41.702,20.175,41.573,20.073,41.489,20.009z"/>
	<path fill-rule="evenodd" clip-rule="evenodd" fill="#8BC03F" d="M26.498,21.778c-0.325,0.071-0.618,0.295-0.923,0.461
		c0.036,0.06,0.072,0.119,0.109,0.18c0.354,0.038,0.705,0.076,1.335,0.145C26.778,22.188,26.588,21.759,26.498,21.778z"/>
	<path fill-rule="evenodd" clip-rule="evenodd" fill="#8BC03F" d="M36.817,18.333c0.223,0.173,0.447,0.342,0.664,0.518
		c0.205,0.166,0.404,0.34,0.605,0.511C37.745,18.212,37.346,17.932,36.817,18.333z"/>
	<path fill-rule="evenodd" clip-rule="evenodd" fill="#8BC03F" d="M38.983,22.729c0.019-0.069,0.037-0.138,0.055-0.206
		c-0.443-0.121-0.886-0.242-1.482-0.406C37.936,23.104,38.458,22.923,38.983,22.729z"/>
	<path fill-rule="evenodd" clip-rule="evenodd" fill="#8BC03F" d="M35.303,6.644c-0.313-0.777-0.545-1.586-0.835-2.372
		c-1.395-3.774-4.777-4.657-7.499-4.135c-3.033,0.582-5.194,2.406-6.804,4.964c-0.37,0.587-0.739,1.175-1.129,1.748
		c-0.126,0.186-0.303,0.344-0.48,0.485c-0.505,0.397-0.734,0.916-0.58,1.528c0.103,0.409-0.006,0.699-0.245,0.994
		c-0.674,0.832-1.511,1.472-2.405,2.042c-0.099,0.063-0.243,0.081-0.364,0.076c-0.98-0.038-1.495,0.443-1.7,1.405
		c-0.136,0.638-0.354,1.294-0.694,1.844c-0.876,1.414-2.025,2.596-3.401,3.546c-0.112,0.078-0.252,0.153-0.384,0.161
		c-1.131,0.073-1.523,0.432-1.688,1.561c-0.166,1.133-0.617,2.099-1.594,2.768c-0.454,0.311-0.89,0.646-1.329,0.978
		c-0.219,0.165-0.426,0.213-0.715,0.144c-0.856-0.203-1.698,0.322-1.777,1.145c-0.104,1.084-0.495,2.072-0.848,3.082
		c-0.352,1.006-0.637,2.034-0.799,2.556c-0.281,3.134,1.25,5.524,3.691,6.261c0.684,0.207,1.42,0.324,2.133,0.33
		c1.472,0.013,2.945-0.123,4.417-0.113c1.39,0.009,2.496-0.402,3.16-1.699c0.053-0.104,0.175-0.195,0.285-0.243
		c0.796-0.343,1.594-0.686,2.399-1.007c0.814-0.324,1.643-0.505,2.541-0.362c0.897,0.143,1.592-0.491,1.682-1.403
		c0.019-0.19,0.115-0.442,0.26-0.54c0.712-0.482,1.44-0.94,2.167-1.399c0.006,0.277,0.133,0.533,0.652,0.717
		c-0.451,0.05-0.669,0.074-0.888,0.098c0.001,0.074,0.003,0.147,0.005,0.222c0.271-0.017,0.543-0.051,0.813-0.042
		c0.145,0.003,0.309,0.05,0.421,0.135c0.049,0.035-0.011,0.217-0.021,0.332c-0.009,0.113-0.068,0.264-0.019,0.331
		c0.271,0.364,0.083,0.55-0.222,0.741c-0.227,0.143-0.424,0.332-0.635,0.5c0.042,0.053,0.082,0.104,0.123,0.156
		c0.613-0.316,1.225-0.634,1.844-0.953c-0.178-0.271-0.324-0.475-0.452-0.69c-0.274-0.462-0.544-0.931-0.81-1.398
		c-0.085-0.149-0.229-0.313-0.217-0.462c0.002-0.031,0.016-0.053,0.02-0.084c0.092-0.057,0.18-0.119,0.271-0.176
		c0.211-0.129,0.49-0.182,0.743-0.205c0.763-0.07,1.303-0.48,1.425-1.221c0.114-0.684,0.465-1.207,0.938-1.67
		c0.813-0.792,1.764-1.35,2.862-1.652c0.792-0.218,1.276-0.852,1.149-1.602c-0.144-0.846,0.084-1.563,0.553-2.25
		c0.553-0.811,1.074-1.645,1.631-2.454c0.078-0.114,0.264-0.199,0.41-0.213c1.079-0.107,1.662-1.026,1.35-2.055
		c-0.121-0.396-0.189-0.873-0.089-1.263c0.423-1.635,0.985-3.237,0.962-4.961c-0.001-0.137,0.145-0.304,0.266-0.409
		c0.635-0.552,0.736-1.308,0.32-2.028C35.844,7.855,35.549,7.256,35.303,6.644z M29.841,18.748
		c-0.056,0.083-0.118,0.163-0.175,0.241c-0.671-0.292-0.82-0.219-1.309,0.287c-0.301,0.311-0.693,0.561-1.087,0.749
		c-0.503,0.238-0.745,0.554-0.603,0.984c0.121,0.369,0.437,0.527,0.85,0.47c0.226-0.011,0.433-0.071,0.624-0.171
		c-0.13,0.604-0.247,1.201-0.401,1.787c-0.025,0.1-0.215,0.167-0.34,0.227c-0.295,0.142-0.575,0.304-0.854,0.465
		c0.083-0.127,0.183-0.248,0.284-0.355c0.121-0.127,0.311-0.187,0.471-0.277c-0.046-0.076-0.092-0.152-0.137-0.229
		c-0.522,0.295-1.045,0.59-1.623,0.916c-0.223,0.258-0.521,0.594-0.809,0.943c-0.047,0.057-0.071,0.178-0.041,0.237
		c0.018,0.035,0.05,0.069,0.087,0.097c-0.48,0.471-0.917,0.988-1.254,1.613c-0.289,0.533-0.651,0.821-1.19,1.061
		c-1.778,0.785-3.381,1.832-4.625,3.364c-0.072,0.089-0.208,0.163-0.322,0.176c-0.756,0.083-1.475,0.289-2.179,0.544
		c-0.259-0.349-0.615-0.389-1.238-0.27c0.072,0.22,0.145,0.443,0.219,0.67c-0.011,0.004-0.022,0.008-0.033,0.013
		c-0.611,0.261-1.227,0.513-1.843,0.763c-0.635,0.257-1.053,0.74-1.407,1.303c-0.079,0.125-0.24,0.275-0.37,0.281
		c-1.5,0.072-3.002,0.123-4.504,0.165c-0.302,0.008-0.605-0.044-0.907-0.077c-1.736-0.191-2.364-1.715-2.153-2.912
		c0.126-0.719,0.39-1.415,0.616-2.115c0.218-0.673,0.456-1.34,0.706-2.002c0.048-0.129,0.172-0.266,0.296-0.323
		c1.491-0.694,2.818-1.644,3.883-2.871c0.579-0.665,0.871-1.577,1.304-2.371c0.09-0.165,0.2-0.351,0.352-0.446
		c1.078-0.682,2.055-1.452,2.921-2.32c0.074,0.171,0.169,0.333,0.278,0.489c-0.158,0.259-0.267,0.534-0.284,0.798
		c-0.026,0.391,0.213,0.718,0.583,0.801c0.354,0.079,0.742-0.119,0.848-0.505c0.121-0.436,0.366-0.69,0.793-0.825
		c0.411-0.129,0.597-0.498,0.5-0.887c-0.089-0.357-0.428-0.576-0.832-0.538c-0.483,0.045-0.995,0.383-1.367,0.821
		c-0.074-0.153-0.148-0.306-0.222-0.459c1.072-1.139,1.957-2.444,2.594-3.969c0.052-0.125,0.191-0.241,0.318-0.307
		c0.425-0.222,0.828-0.473,1.217-0.738c0.057,0.198,0.167,0.378,0.396,0.53c0.407,0.27,0.73,0.663,1.113,0.974
		c0.107,0.086,0.368,0.152,0.428,0.094c0.1-0.098,0.19-0.295,0.176-0.428c0.31-0.063,0.531-0.322,0.587-0.743
		c0.059-0.451,0.292-0.765,0.673-1c0.436-0.271,0.546-0.687,0.306-1.067c-0.221-0.349-0.651-0.437-1.07-0.198
		c-0.732,0.417-1.151,1.038-1.31,1.712c-0.156-0.16-0.331-0.308-0.515-0.45c0.646-0.522,1.239-1.11,1.777-1.764
		c0.563-0.685,0.939-1.454,0.996-2.357c0.007-0.12,0.07-0.246,0.138-0.351c0.492-0.765,1.007-1.517,1.484-2.291
		c0.912-1.482,2.1-2.651,3.719-3.331c1.104-0.463,2.234-0.561,3.385-0.149c0.796,0.287,1.369,0.821,1.694,1.584
		c0.328,0.769,0.586,1.568,0.88,2.352c0.092,0.245,0.208,0.486,0.315,0.728c-0.043-0.041-0.09-0.08-0.13-0.121
		c-0.122-0.125-0.176-0.318-0.26-0.48c-0.077,0.043-0.155,0.085-0.233,0.128c0.274,0.533,0.55,1.065,0.855,1.655
		c0.015,0.013,0.033,0.031,0.048,0.044c-0.033,0.461-0.205,0.935-0.294,1.401c-0.029,0.156-0.043,0.316-0.047,0.475
		c-0.009,0.28-0.058,0.492-0.343,0.669c-0.172,0.106-0.234,0.432-0.287,0.671c-0.051,0.227-0.057,0.412-0.367,0.426
		c-0.203,0.008-0.36,0.064-0.492,0.142c-0.146-0.062-0.287-0.311-0.69-1.037c-0.455,0.073-0.88,0.222-0.476,0.764
		c0.48,0.64,0.389,1.103-0.268,1.578c0.48-0.026,0.96-0.051,1.44-0.077c0.06,0.04,0.118,0.078,0.19,0.104
		c0.085,0.051,0.17,0.103,0.256,0.154c-0.004-0.032-0.008-0.063-0.012-0.095c0.023,0.003,0.04,0.013,0.063,0.015
		c0.083,0.007,0.165,0.014,0.234,0.02c-0.095,0.721-0.187,1.417-0.282,2.114c-0.007,0.052-0.035,0.119-0.076,0.147
		C30.702,17.131,30.347,17.997,29.841,18.748z"/>
	<path fill-rule="evenodd" clip-rule="evenodd" fill="#8BC03F" d="M25.425,18.493c-0.417-0.093-0.765,0.109-0.895,0.546
		c-0.149,0.503-0.312,0.948-0.871,1.188c-0.108,0.047-0.194,0.12-0.263,0.209c-0.018-0.236-0.115-0.491-0.094-0.709
		c0.004-0.047-0.318-0.124-0.462-0.178c0.046,0.58,0.082,1.025,0.12,1.499c0.134-0.048,0.219-0.11,0.286-0.176
		c-0.018,0.204,0.015,0.419,0.124,0.601c0.231,0.385,0.681,0.525,1.041,0.272c0.854-0.597,1.354-1.436,1.565-2.367
		C26.02,18.896,25.797,18.577,25.425,18.493z"/>
	<path fill-rule="evenodd" clip-rule="evenodd" fill="#8BC03F" d="M13.72,28.936c-0.343-0.161-0.715-0.045-0.937,0.296
		c-0.092,0.142-0.167,0.244-0.236,0.318c0.041-0.174,0.083-0.355,0.131-0.558c-0.438,0.188-0.63,0.396-0.699,0.613
		c-0.072-0.028-0.136-0.052-0.231-0.097c-0.354-0.169-0.751-0.07-0.958,0.237c-0.212,0.313-0.184,0.739,0.138,0.97
		c0.307,0.219,0.671,0.359,1.011,0.533c0.951,0.011,1.871-0.535,2.156-1.328C14.246,29.503,14.098,29.115,13.72,28.936z"/>
	<path fill-rule="evenodd" clip-rule="evenodd" fill="#8BC03F" d="M19.779,24.052c-0.279-0.014-0.549,0.137-0.671,0.469
		c-0.147,0.406-0.458,0.616-0.824,0.771c-0.172,0.074-0.364,0.105-0.527,0.192c-0.324,0.174-0.487,0.446-0.394,0.823
		c0.091,0.37,0.339,0.566,0.716,0.572c0.926,0.014,2.196-0.98,2.423-1.889C20.618,24.532,20.319,24.101,19.779,24.052z"/>
	<path fill-rule="evenodd" clip-rule="evenodd" fill="#8BC03F" d="M29.429,9.933c0.026,0.271-0.013,0.547-0.012,0.821
		c0.001,0.425,0.272,0.733,0.668,0.77c0.376,0.036,0.69-0.197,0.786-0.592c0.031-0.125,0.042-0.256,0.063-0.384
		c0.014-0.002,0.027-0.005,0.042-0.007c-0.06-0.485-0.052-0.992-0.202-1.447c-0.105-0.323-0.377-0.641-0.658-0.847
		c-0.331-0.242-0.815-0.084-1.037,0.231c-0.228,0.326-0.165,0.663,0.147,1.011C29.332,9.606,29.414,9.778,29.429,9.933z"/>
	<path fill-rule="evenodd" clip-rule="evenodd" fill="#8BC03F" d="M29.198,14.375c-0.371,0.087-0.611,0.437-0.529,0.863
		c0.071,0.376-0.035,0.556-0.416,0.645c-0.412,0.096-0.624,0.476-0.539,0.854c0.09,0.406,0.439,0.641,0.872,0.585
		c0.849-0.111,1.548-0.862,1.619-1.855c-0.02-0.103-0.039-0.334-0.107-0.55C29.959,14.48,29.604,14.278,29.198,14.375z"/>
	<path fill-rule="evenodd" clip-rule="evenodd" fill="#8BC03F" d="M23.373,8.601c0.079-0.033,0.263-0.078,0.409-0.177
		c0.427-0.285,0.833-0.598,1.256-0.887c0.313-0.212,0.442-0.565,0.31-0.903c-0.132-0.334-0.495-0.555-0.837-0.454
		c-0.756,0.223-1.386,0.655-1.828,1.31C22.368,7.954,22.704,8.555,23.373,8.601z"/>
	<path fill-rule="evenodd" clip-rule="evenodd" fill="#8BC03F" d="M23.79,23.2c-0.313-0.13-0.678-0.088-0.811,0.202
		c-0.229,0.496-0.619,0.795-1.01,1.128c-0.255,0.218-0.27,0.539-0.105,0.834c0.163,0.291,0.422,0.437,0.761,0.382
		c0.26-0.042,0.521-0.179,0.76-0.366c0.188,0.121,0.375,0.24,0.562,0.36c-0.548-0.509,0.3-0.654,0.282-0.843
		c-0.119-0.018-0.225-0.032-0.339-0.049c0.198-0.284,0.335-0.604,0.364-0.913C24.259,23.608,24.12,23.336,23.79,23.2z"/>
	<path fill-rule="evenodd" clip-rule="evenodd" fill="#8BC03F" d="M17.613,28.67c-0.366-0.22-0.735-0.1-1.047,0.287
		c-0.093,0.116-0.295,0.14-0.438,0.222c-0.249,0.143-0.581,0.244-0.705,0.461c-0.102,0.178-0.028,0.555,0.108,0.742
		c0.15,0.207,0.46,0.299,0.608,0.387c0.867-0.01,1.338-0.421,1.687-1.01C18.083,29.327,17.99,28.896,17.613,28.67z"/>
	<path fill-rule="evenodd" clip-rule="evenodd" fill="#8BC03F" d="M10.646,32.245c-0.202-0.107-0.529-0.091-0.76-0.011
		c-0.386,0.134-0.739,0.363-1.107,0.55c-0.319,0.162-0.476,0.424-0.429,0.773s0.261,0.57,0.619,0.625
		c0.537,0.082,1.722-0.534,1.957-1.015c0.037-0.076,0.058-0.161,0.124-0.353C10.942,32.654,10.846,32.354,10.646,32.245z"/>
</symbol>

<symbol id ="cheese" viewBox="0 0 38.126 34.138">
	<path fill="#F9B43B" d="M1.425,4.438C1.6,4.169,1.779,3.901,1.96,3.636C2.018,3.55,2.069,3.43,2.151,3.396
		C2.613,3.21,3.006,3.358,3.298,3.869c0.139-0.108,0.34-0.189,0.38-0.317c0.05-0.163-0.018-0.37-0.063-0.55
		C3.583,2.877,3.502,2.766,3.444,2.647C3.41,2.667,3.375,2.686,3.341,2.705C3.353,2.907,3.363,3.11,3.373,3.288
		c-0.501,0.131-0.538-0.734-1.019-0.34C2.093,3.164,1.528,3.001,1.613,3.7C1.467,3.472,1.396,3.36,1.326,3.25
		C1.287,3.271,1.248,3.291,1.208,3.312c0.081,0.141,0.17,0.277,0.238,0.425c0.037,0.079,0.055,0.178,0.039,0.261
		C1.479,4.033,1.366,4.049,1.302,4.073c-0.063,0.025-0.16,0.033-0.183,0.078c-0.124,0.241-0.273,0.19-0.456,0.077
		c-0.136-0.084-0.29-0.14-0.436-0.208C0.21,4.057,0.194,4.092,0.177,4.127C0.508,4.373,0.84,4.616,1.175,4.864
		C1.273,4.696,1.344,4.564,1.425,4.438z"/>
	<path fill="#F9B43B" d="M15.785,3.683c-0.35,0.1-0.659,0.189-0.967,0.277c-0.008,0.032-0.015,0.063-0.023,0.095
		c0.348,0.052,0.695,0.104,1.043,0.156C15.414,4.066,15.84,3.78,15.785,3.683z"/>
	<path fill="#F9B43B" d="M7.745,2.725C7.621,2.568,7.423,2.471,7.254,2.352C7.231,2.387,7.209,2.423,7.187,2.458
		c0.072,0.199,0.146,0.397,0.275,0.753C7.599,2.983,7.779,2.768,7.745,2.725z"/>
	<path fill="#F9B43B" d="M12.218,7.835c-0.035,0.154-0.075,0.307-0.114,0.46c0.526-0.486,0.571-0.775,0.216-0.953
		C12.286,7.507,12.255,7.674,12.218,7.835z"/>
	<path fill="#F9B43B" d="M7.999,0.47c0.026-0.011-0.017-0.204-0.027-0.294C7.673,0.354,7.444,0.49,7.2,0.637
		C7.547,0.968,7.749,0.565,7.999,0.47z"/>
	<path fill="#F9B43B" d="M13.892,27.467c0.376,0.123,0.752,0.247,1.128,0.37c0.019-0.056,0.038-0.112,0.055-0.169
		c-0.371-0.137-0.743-0.273-1.115-0.412C13.938,27.326,13.915,27.396,13.892,27.467z"/>
	<path fill="#F9B43B" d="M13.273,32.736c0.042-0.007,0.084-0.016,0.125-0.024c-0.052-0.27-0.104-0.54-0.174-0.902
		C12.795,32.274,13.031,32.507,13.273,32.736z"/>
	<path fill="#F9B43B" d="M9.755,33.905c0.05,0.004,0.1,0.005,0.15,0.007c0.02-0.434,0.04-0.867,0.06-1.301
		c-0.053,0.003-0.105,0.005-0.157,0.007C9.79,33.048,9.772,33.477,9.755,33.905z"/>
	<path fill="#F9B43B" d="M29.435,9.618c-0.015,0.03,0.031,0.087,0.08,0.205c0.067-0.196,0.106-0.311,0.174-0.509
		c0.123,0.179,0.205,0.301,0.293,0.419c0.165,0.22,0.48,0.215,0.552-0.028c0.175-0.588,0.612-0.724,1.202-0.733
		c-0.113-0.332-0.263-0.426-0.541-0.205c-0.155,0.121-0.328,0.226-0.502,0.323c-0.401,0.225-0.662,0.081-0.705-0.384
		c-0.007-0.08-0.014-0.161-0.02-0.23c-0.131-0.035-0.26-0.115-0.337-0.078c-0.112,0.052-0.187,0.184-0.278,0.282
		C29.676,8.968,29.589,9.289,29.435,9.618z"/>
	<path fill="#F9B43B" d="M35.847,2.985c-0.217,0.427-0.488,0.499-0.917,0.273c0.143,0.254,0.284,0.507,0.427,0.759
		c-0.008,0.102-0.017,0.2-0.024,0.301c0.281-0.182,0.563-0.362,0.761-0.49c-0.145-0.165-0.145-0.165,0.289-0.789
		C36.222,2.813,36.031,2.624,35.847,2.985z"/>
	<path fill="#F9B43B" d="M38.074,4.522c-0.35,0.1-0.658,0.189-0.967,0.277c-0.008,0.032-0.016,0.063-0.023,0.095
		c0.348,0.052,0.695,0.104,1.043,0.156C37.703,4.906,38.129,4.62,38.074,4.522z"/>
	<path fill="#F9B43B" d="M30.034,3.564c-0.124-0.156-0.321-0.253-0.491-0.373c-0.022,0.034-0.045,0.071-0.066,0.105
		c0.072,0.2,0.145,0.398,0.275,0.754C29.888,3.823,30.068,3.607,30.034,3.564z"/>
	<path fill="#F9B43B" d="M34.628,5.438c-0.371-0.138-0.743-0.274-1.114-0.412c-0.022,0.07-0.046,0.141-0.069,0.211
		c0.377,0.123,0.753,0.247,1.129,0.37C34.592,5.55,34.611,5.493,34.628,5.438z"/>
	<path fill="#F9B43B" d="M34.507,8.675c-0.035,0.154-0.076,0.307-0.114,0.46c0.526-0.486,0.571-0.775,0.216-0.953
		C34.576,8.347,34.544,8.514,34.507,8.675z"/>
	<path fill="#F9B43B" d="M32.827,10.505c0.042-0.007,0.083-0.016,0.125-0.024c-0.053-0.269-0.104-0.539-0.175-0.902
		C32.348,10.044,32.583,10.276,32.827,10.505z"/>
	<path fill="#F9B43B" d="M31.134,4.579c0.039-0.042,0.078-0.086,0.118-0.129c-0.239-0.199-0.478-0.401-0.716-0.602
		C30.5,3.89,30.462,3.93,30.425,3.97C30.558,4.283,30.868,4.408,31.134,4.579z"/>
	<path fill="#F9B43B" d="M30.288,1.31c0.026-0.01-0.017-0.204-0.026-0.294c-0.299,0.177-0.528,0.314-0.771,0.461
		C29.835,1.809,30.038,1.405,30.288,1.31z"/>
	<path fill="#F9B43B" d="M17.718,27.996l0.09-0.001c2.33-0.051,4.185-1.984,4.134-4.311c-0.049-2.28-1.943-4.136-4.223-4.136
		l-0.09,0.001c-1.122,0.024-2.172,0.491-2.958,1.313c-0.783,0.819-1.2,1.885-1.174,2.999C13.552,26.142,15.445,27.996,17.718,27.996
		z M17.719,21.972c0.958,0,1.766,0.779,1.8,1.735c0.035,0.985-0.736,1.821-1.717,1.864c-0.026,0.001-0.052,0.002-0.077,0.002
		c-0.337,0-0.652-0.1-0.923-0.264c0.01-0.015,0.017-0.025,0.027-0.04c-0.114-0.162-0.247-0.298-0.38-0.231
		c-0.317-0.319-0.519-0.753-0.528-1.232c-0.019-0.984,0.767-1.807,1.75-1.833L17.719,21.972z"/>
	<path fill="#F9B43B" d="M8.959,27.135l0.086-0.001c0.744-0.021,1.41-0.312,1.935-0.762c0.156,0.193,0.39,0.304,0.601,0.438
		c0.04-0.043,0.079-0.086,0.118-0.13c-0.183-0.152-0.365-0.306-0.547-0.458c0.593-0.589,0.957-1.405,0.931-2.304
		c-0.047-1.675-1.45-3.038-3.126-3.038l-0.088,0.001c-0.827,0.023-1.601,0.373-2.178,0.984c-0.577,0.611-0.882,1.404-0.859,2.231
		C5.88,25.772,7.283,27.135,8.959,27.135z M8.958,23.193v0.124c0.438,0,0.69,0.25,0.692,0.686c0.002,0.438-0.249,0.691-0.699,0.696
		c-0.4,0-0.636-0.231-0.702-0.689c0.06-0.459,0.297-0.692,0.705-0.692L8.958,23.193L8.958,23.193z"/>
	<path fill="#F9B43B" d="M26.691,23.919l0.063-0.001c0.758-0.017,1.469-0.334,2-0.893c0.53-0.56,0.811-1.284,0.789-2.042
		c-0.045-1.56-1.377-2.822-2.951-2.769c-1.542,0.054-2.777,1.353-2.753,2.896C23.863,22.659,25.142,23.919,26.691,23.919z
		 M26.302,21.051c-0.01-0.07,0.105-0.213,0.227-0.364c0.053-0.064,0.109-0.136,0.167-0.213c0.054,0.076,0.106,0.145,0.154,0.208
		c0.13,0.171,0.233,0.306,0.229,0.402c-0.003,0.106-0.254,0.36-0.334,0.369C26.574,21.423,26.322,21.194,26.302,21.051z"/>
	<path fill="#F9B43B" d="M35.343,27.38c-0.235-0.027-0.471-0.055-0.707-0.071c-1.23-0.083-2.194-1.053-2.24-2.255
		c-0.048-1.236,0.861-2.283,2.113-2.436c0.218-0.026,0.435-0.063,0.65-0.1c0.118-0.021,0.235-0.041,0.354-0.06l0.108-0.017
		l-0.177-6.606L35.396,15.8c-0.061-0.047-0.123-0.092-0.187-0.138c-0.138-0.099-0.268-0.192-0.384-0.303
		c-1.392-1.317-2.789-2.631-4.186-3.944l-1.783-1.679l-0.702,1.844l-0.415-0.674l-2.158-0.972l0.537,0.509
		c0.728,0.688,1.454,1.379,2.18,2.068c0.682,0.646,1.361,1.293,2.042,1.938c0.094,0.09,0.183,0.184,0.292,0.298l0.01,0.011
		l-3.958-0.549c-4.08-0.567-8.298-1.153-12.449-1.712c-0.65-0.087-0.962-0.236-0.977-0.852c-0.004-0.235-0.116-0.466-0.227-0.695
		c-0.801-1.667-2.157-2.586-3.92-2.657C8.958,8.286,8.813,8.296,8.666,8.302c0.209-0.12,0.473-0.165,0.781-0.17
		C9.333,7.8,9.184,7.707,8.906,7.927C8.75,8.049,8.578,8.152,8.404,8.25C8.002,8.476,7.741,8.331,7.699,7.866
		c-0.007-0.08-0.013-0.161-0.02-0.23c-0.131-0.035-0.26-0.115-0.337-0.078C7.23,7.609,7.155,7.741,7.064,7.84
		c0.263,0.234,0.25,0.492,0.154,0.757c-0.917,0.368-1.68,1.063-2.273,2.081c-0.13,0.225-0.325,0.416-0.427,0.419l-0.072,0.001
		c-0.272,0-0.55-0.052-0.873-0.111c-0.088-0.017-0.179-0.033-0.272-0.05c0.107-0.13,0.209-0.256,0.31-0.379
		c0.288-0.354,0.561-0.689,0.848-0.999c1.978-2.134,4.257-3.82,6.878-5.103c0.316,0.104,0.632,0.207,0.947,0.311
		c0.019-0.057,0.037-0.112,0.055-0.169c-0.248-0.091-0.495-0.183-0.742-0.274c1.62-0.769,3.371-1.385,5.265-1.853
		c0.52-0.127,0.8-0.057,1.16,0.287c1.873,1.788,3.752,3.568,5.632,5.349l1.828,1.732l0.068-0.018
		c0.979-0.262,1.469-0.799,1.539-1.69l0.006-0.06L27.051,8.03c-1.161-1.099-2.2-2.088-3.163-3.013
		c0.12-0.181,0.239-0.362,0.361-0.542c0.058-0.086,0.108-0.206,0.191-0.239c0.461-0.187,0.854-0.038,1.147,0.473
		c0.139-0.108,0.34-0.189,0.379-0.318c0.051-0.162-0.018-0.369-0.063-0.549c-0.031-0.125-0.112-0.235-0.171-0.354
		c-0.034,0.019-0.068,0.038-0.103,0.056c0.012,0.203,0.021,0.406,0.031,0.583c-0.5,0.132-0.537-0.733-1.018-0.339
		c-0.262,0.216-0.826,0.052-0.741,0.752c-0.146-0.229-0.217-0.34-0.288-0.45c-0.039,0.021-0.078,0.041-0.117,0.062
		c0.081,0.141,0.17,0.277,0.238,0.425c0.037,0.078,0.055,0.178,0.039,0.261c-0.002,0.012-0.026,0.02-0.046,0.027
		c-1.286-1.235-2.435-2.354-3.525-3.432C19.188,0.428,18.293,0,17.21,0c-0.462,0-0.966,0.081-1.543,0.246
		c-2.669,0.767-5.05,1.758-7.161,2.98C8.42,3.154,8.333,3.082,8.247,3.009C8.21,3.05,8.173,3.09,8.136,3.13
		c0.039,0.093,0.097,0.166,0.161,0.231c-3.38,2.003-6.063,4.61-8.096,7.884c-0.022,0.036-0.06,0.07-0.099,0.107
		c-0.022,0.021-0.045,0.042-0.066,0.064L0,11.454l0.466,17.339l-0.001-0.001l0.018,0.621l0.562,0.071L0.66,29.025l0.078-0.17
		c0.086,0.041,0.173,0.08,0.26,0.119c0.281,0.127,0.546,0.246,0.763,0.424l0.272,0.22l1.048,0.138
		c1.313,0.172,2.627,0.344,3.939,0.525c0.992,0.138,1.984,0.276,2.977,0.414c-0.069,0.063-0.131,0.144-0.197,0.216
		c0.323,0.288,0.236,0.608,0.081,0.938c-0.014,0.029,0.032,0.087,0.081,0.204c0.067-0.195,0.106-0.311,0.173-0.508
		c0.124,0.179,0.205,0.3,0.293,0.418c0.165,0.221,0.48,0.215,0.552-0.027c0.175-0.589,0.612-0.724,1.202-0.734
		c-0.032-0.095-0.069-0.164-0.11-0.218c4.518,0.627,9.035,1.255,13.551,1.885l0.101,0.014l0.051-0.14
		c0.077-0.211,0.157-0.43,0.218-0.651c0.211-0.775,0.512-0.865,0.72-0.865c0.21,0,0.477,0.104,0.811,0.316
		c-0.535,0.425-0.944,0.827-1.247,1.229l-0.129,0.17l3.557,0.495c1.047,0.146,2.111,0.313,3.139,0.476
		c0.48,0.075,0.96,0.15,1.439,0.225l0.012,0.001h0.011c0.503-0.013,1.005-0.025,1.507-0.04l0.125-0.004l-0.18-6.667L35.343,27.38z
		 M6.35,26.073c-0.031-0.125-0.112-0.236-0.171-0.354c-0.034,0.02-0.068,0.038-0.102,0.057c0.011,0.203,0.021,0.406,0.031,0.583
		C5.607,26.489,5.57,25.624,5.09,26.02c-0.262,0.216-0.826,0.052-0.741,0.752c-0.146-0.229-0.217-0.34-0.288-0.45
		c-0.039,0.02-0.078,0.04-0.117,0.062c0.081,0.141,0.17,0.276,0.238,0.424c0.036,0.079,0.055,0.178,0.039,0.262
		c-0.007,0.036-0.12,0.051-0.184,0.076c-0.063,0.024-0.16,0.032-0.183,0.078c-0.048,0.094-0.101,0.134-0.157,0.152
		c-0.071-0.01-0.142-0.02-0.213-0.029c-0.028-0.015-0.056-0.027-0.086-0.046c-0.136-0.084-0.289-0.14-0.435-0.208
		c-0.017,0.035-0.034,0.07-0.051,0.106c0.038,0.027,0.075,0.056,0.113,0.083c-0.045-0.006-0.09-0.013-0.135-0.019L2.514,13.298
		c0.128,0.017,0.255,0.034,0.38,0.052c0.411,0.058,0.8,0.111,1.196,0.146c0.298,0.027,0.421,0.139,0.524,0.478
		c0.565,1.872,1.863,2.994,3.752,3.247c1.792,0.235,3.303-0.475,4.331-2.034c0.244-0.37,0.417-0.438,0.796-0.382
		c3.601,0.515,7.265,1.022,10.808,1.514l3.017,0.419l0.027,0.004l1.084-0.314l0.163,0.488l0.271,0.038
		c0.91,0.126,1.819,0.253,2.74,0.382l1.452,0.204l0.019,0.617c0.021,0.731,0.043,1.423,0.039,2.12
		c-0.001,0.073-0.135,0.241-0.265,0.305c-1.956,0.964-2.916,2.486-2.854,4.526c0.061,2.013,1.092,3.464,3.066,4.313
		c0.15,0.065,0.299,0.212,0.305,0.278c0.041,0.454,0.049,0.915,0.058,1.402c0.003,0.136,0.005,0.273,0.009,0.414l-1.566-0.218
		l-13.219-1.84c-4.821-0.671-9.632-1.341-14.442-2.011c0.162-0.248,0.326-0.494,0.492-0.739c0.058-0.086,0.108-0.205,0.191-0.238
		c0.461-0.187,0.855-0.038,1.147,0.472c0.139-0.108,0.34-0.189,0.38-0.317C6.463,26.46,6.396,26.253,6.35,26.073z M31.861,31.381
		l1.971,1.814l-0.16,0.177c-0.984-0.123-1.895-0.271-1.813-1.963L31.861,31.381z M9.058,14.845
		c-0.262,0.017-0.525-0.021-0.783-0.108l-0.121-0.041l-0.038,0.121c-0.183,0.578-0.443,0.92-1.133,0.886l0.578-1.379l-0.062-0.06
		c-0.387-0.369-0.614-0.858-0.64-1.377c-0.028-0.56,0.164-1.096,0.541-1.511c0.374-0.411,0.883-0.65,1.435-0.675
		c0.031-0.001,0.061-0.002,0.091-0.002c1.124,0,2.037,0.876,2.078,1.994C11.044,13.814,10.172,14.779,9.058,14.845z M7.4,8.476
		c0.013,0.019,0.021,0.031,0.034,0.049C7.415,8.53,7.396,8.535,7.377,8.541C7.385,8.519,7.391,8.501,7.4,8.476z M11.642,30.998
		c-0.155,0.121-0.329,0.225-0.502,0.322c-0.402,0.226-0.663,0.081-0.706-0.384c-0.005-0.063-0.01-0.124-0.016-0.183
		c0.442,0.062,0.884,0.123,1.326,0.185C11.71,30.957,11.68,30.968,11.642,30.998z"/>
</symbol>

<symbol id ="kkal" viewBox="0 0 60 60.178">
	<path fill-rule="evenodd" clip-rule="evenodd"  d="M38.164,48.505c0.149,0.27,0.217,0.584,0.342,0.87
		c0.035,0.08,0.162,0.192,0.213,0.177c0.095-0.029,0.225-0.133,0.236-0.219c0.086-0.707-0.18-1.311-0.586-1.946
		C38.262,47.804,37.928,48.082,38.164,48.505z"/>
	<path fill-rule="evenodd" clip-rule="evenodd"  d="M44.893,51.72c0.28,0.126,0.561,0.253,0.84,0.378
		c0.056,0.09,0.111,0.181,0.167,0.271c0.126-0.332,0.252-0.663,0.341-0.895c-0.227-0.049-0.227-0.049-0.25-0.854
		c-0.277-0.091-0.56-0.131-0.488,0.291C45.584,51.411,45.398,51.644,44.893,51.72z"/>
	<path fill-rule="evenodd" clip-rule="evenodd"  d="M48.188,48.593c0,0.379,0,0.758,0,1.179
		c0.072,0.202,0.165,0.471,0.268,0.738c0.017,0.043,0.075,0.094,0.118,0.096c0.051,0.002,0.121-0.029,0.156-0.069
		c0.188-0.213,0.061-0.979-0.155-1.18c-0.108-0.102-0.166-0.273-0.212-0.423c-0.032-0.106-0.006-0.229-0.006-0.345
		C48.301,48.59,48.244,48.591,48.188,48.593z"/>
	<path fill-rule="evenodd" clip-rule="evenodd"  d="M47.752,51.761c0.329-0.174,0.658-0.348,0.986-0.521
		c-0.451,0.143-0.267-0.368-0.377-0.418c-0.234,0.306-0.441,0.575-0.648,0.845C47.727,51.698,47.739,51.729,47.752,51.761z"/>
	<path fill-rule="evenodd" clip-rule="evenodd"  d="M40.263,55.044c0.003,0.045,0.007,0.089,0.011,0.133
		c0.186,0.124,0.373,0.248,0.707,0.469c-0.027-0.281-0.008-0.577-0.065-0.592C40.711,55,40.482,55.039,40.263,55.044z"/>
	<path fill-rule="evenodd" clip-rule="evenodd"  d="M44.869,54.335c0.398-0.131,0.796-0.262,1.193-0.393
		c-0.02-0.059-0.039-0.119-0.059-0.178c-0.403,0.116-0.807,0.233-1.209,0.349C44.82,54.188,44.845,54.262,44.869,54.335z"/>
	<path fill-rule="evenodd" clip-rule="evenodd"  d="M41.504,55.154c0.309,0.184,0.651,0.095,0.986,0.073
		c0.006-0.062,0.013-0.123,0.02-0.184c-0.33-0.021-0.659-0.042-0.988-0.063C41.516,55.038,41.51,55.096,41.504,55.154z"/>
	<path fill-rule="evenodd" clip-rule="evenodd"  d="M39.508,52.741c-0.141,0.339-0.25,0.6-0.367,0.876
		c0.504,0.066,0.423-0.404,0.576-0.642C39.732,52.95,39.574,52.813,39.508,52.741z"/>
	<path fill-rule="evenodd" clip-rule="evenodd"  d="M49.279,12.807c0.43-0.424,0.57-0.966,0.635-1.602
		c-0.291,0.221-0.659,0.231-0.725,0.635c-0.043,0.258-0.164,0.503-0.23,0.759c-0.019,0.071,0.007,0.213,0.049,0.229
		C49.086,12.858,49.227,12.858,49.279,12.807z"/>
	<path fill-rule="evenodd" clip-rule="evenodd"  d="M52.301,18.479c0.258-0.153,0.516-0.307,0.697-0.415
		c-0.125-0.152-0.125-0.152,0.282-0.7c-0.136-0.206-0.303-0.381-0.478-0.064c-0.207,0.375-0.454,0.433-0.83,0.218
		c0.119,0.23,0.239,0.462,0.359,0.693C52.322,18.301,52.311,18.39,52.301,18.479z"/>
	<path fill-rule="evenodd" clip-rule="evenodd"  d="M55.146,18.75c0.238-0.042,0.555-0.619,0.518-0.866
		c-0.019-0.125,0.033-0.269,0.082-0.393c0.034-0.087,0.116-0.156,0.178-0.233c-0.039-0.029-0.076-0.057-0.115-0.086
		c-0.199,0.252-0.398,0.504-0.619,0.783c-0.059,0.173-0.139,0.402-0.211,0.632c-0.012,0.037,0.002,0.103,0.027,0.126
		C55.039,18.743,55.102,18.758,55.146,18.75z"/>
	<path fill-rule="evenodd" clip-rule="evenodd"  d="M54.752,18.746c-0.316,0.08-0.597,0.15-0.876,0.22
		c-0.007,0.028-0.016,0.056-0.023,0.084c0.31,0.057,0.62,0.115,0.931,0.171C54.407,19.08,54.799,18.836,54.752,18.746z"/>
	<path fill-rule="evenodd" clip-rule="evenodd"  d="M49.087,27.031c-0.038-0.167-0.118-0.324-0.2-0.476
		c-0.009-0.018-0.152,0.005-0.193,0.048c-0.029,0.03-0.006,0.13,0.02,0.19c0.054,0.135,0.123,0.264,0.213,0.451
		C48.986,27.168,49.099,27.085,49.087,27.031z"/>
	<path fill-rule="evenodd" clip-rule="evenodd"  d="M47.87,15.629c0.024-0.008-0.01-0.183-0.016-0.265
		c-0.272,0.151-0.481,0.267-0.704,0.39C47.449,16.063,47.643,15.707,47.87,15.629z"/>
	<path fill-rule="evenodd" clip-rule="evenodd"  d="M46.762,23.739c-0.028,0.384-0.057,0.768-0.085,1.152
		c0.044,0.004,0.089,0.007,0.134,0.011c0.031-0.388,0.062-0.776,0.092-1.164C46.855,23.738,46.809,23.738,46.762,23.739z"/>
	<path fill-rule="evenodd" clip-rule="evenodd"  d="M56.161,16.009c-0.015-0.306-0.028-0.612-0.043-0.918
		c-0.042,0.004-0.083,0.008-0.124,0.012c0.023,0.306,0.049,0.611,0.073,0.917C56.098,16.016,56.129,16.013,56.161,16.009z"/>
	<path fill-rule="evenodd" clip-rule="evenodd"  d="M29.991,18.645c1.612,0,3.124-0.623,4.253-1.754
		c1.139-1.141,1.791-2.702,1.789-4.282c-0.006-3.307-2.654-5.997-5.901-5.997l-0.119,0.002c-1.659-0.042-3.212,0.594-4.375,1.796
		c-1.099,1.135-1.702,2.621-1.7,4.185c0.004,3.206,2.502,5.859,5.688,6.041C29.748,18.641,29.872,18.616,29.991,18.645z
		 M27.467,12.59c-0.001-0.632,0.258-1.261,0.707-1.727c0.451-0.466,1.043-0.723,1.664-0.723l0.152,0.004l0.142-0.003
		c1.283,0,2.369,1.133,2.372,2.474c0,0.64-0.282,1.306-0.758,1.782c-0.327,0.328-0.896,0.719-1.755,0.719
		c-0.055,0-0.11-0.001-0.166-0.005C28.504,15.035,27.469,13.928,27.467,12.59z"/>
	<path fill-rule="evenodd" clip-rule="evenodd"  d="M6.88,50.749c-0.13,0.573-0.329,1.126-0.354,1.688
		c-0.017,0.378,0.213,0.767,0.333,1.15c0.237-0.24,0.474-0.48,0.731-0.74c0.58,0.544,1.236,1.157,1.892,1.771
		C9.153,52.95,8.523,51.536,6.88,50.749z"/>
	<path fill-rule="evenodd" clip-rule="evenodd"  d="M24.725,40.104c0,0.872,0,1.744,0,2.709
		c0.166,0.465,0.379,1.087,0.616,1.7c0.038,0.099,0.175,0.217,0.271,0.222c0.119,0.005,0.278-0.067,0.359-0.159
		c0.435-0.489,0.141-2.25-0.356-2.713c-0.251-0.234-0.382-0.628-0.487-0.974c-0.074-0.243-0.015-0.528-0.015-0.794
		C24.983,40.098,24.854,40.102,24.725,40.104z"/>
	<path fill-rule="evenodd" clip-rule="evenodd"  d="M6.793,16.1c-0.145-0.206-0.523-0.301-0.806-0.329
		c-0.114-0.011-0.306,0.276-0.381,0.461c-0.243,0.595-0.447,1.207-0.726,1.977c0.543-0.148,0.903-0.234,1.257-0.344
		C6.83,17.651,7.215,16.696,6.793,16.1z"/>
	<path fill-rule="evenodd" clip-rule="evenodd"  d="M3.637,33.25C2.6,33.581,3.022,32.403,2.77,32.291
		c-0.539,0.702-1.016,1.322-1.492,1.942c0.03,0.072,0.061,0.145,0.092,0.217C2.125,34.05,2.881,33.65,3.637,33.25z"/>
	<path fill-rule="evenodd" clip-rule="evenodd"  d="M3.438,58.775c-0.049-0.021-0.316,0.268-0.332,0.428
		c-0.011,0.114,0.209,0.288,0.36,0.375c0.343,0.195,0.708,0.353,1.215,0.6c0-0.264,0.1-0.629-0.019-0.725
		C4.302,59.163,3.865,58.961,3.438,58.775z"/>
	<path fill-rule="evenodd" clip-rule="evenodd"  d="M19.457,30.759c-0.298,0.127-0.529,0.405-0.779,0.61
		c0.291,0.12,0.583,0.32,0.887,0.339c0.25,0.016,0.566-0.13,0.748-0.311c0.1-0.099,0.042-0.569-0.053-0.608
		C20.021,30.693,19.686,30.661,19.457,30.759z"/>
	<path fill-rule="evenodd" clip-rule="evenodd"  d="M21.635,35.389c0.566,0.61,1.133,1.219,1.699,1.829
		c0.061-0.06,0.12-0.12,0.181-0.18c-0.545-0.627-1.09-1.254-1.636-1.881C21.798,35.233,21.716,35.311,21.635,35.389z"/>
	<path fill-rule="evenodd" clip-rule="evenodd"  d="M9.84,30.098c-0.02-0.018-0.036-0.033-0.055-0.05
		c-0.006,0.019-0.01,0.037-0.016,0.056C9.792,30.102,9.818,30.1,9.84,30.098z"/>
	<path fill-rule="evenodd" clip-rule="evenodd"  d="M59.852,52.693c-0.578-2.218-1.171-4.432-1.764-6.646
		c-0.215-0.8-0.428-1.601-0.643-2.401c-0.174,0.583-0.427,1.106-1.389,0.981c0.322-0.767,0.63-1.5,1.009-2.405
		c-0.537-2.023-1.071-4.048-1.605-6.072c-0.349-1.319-0.696-2.637-1.046-3.956c-0.115-0.104-0.222-0.231-0.27-0.34
		c-0.376-0.86-0.579-1.807-1.03-2.619c-0.4-0.721-0.252-1.301,0.011-1.897c-0.605-2.282-1.209-4.564-1.83-6.841
		c-0.117-0.432-0.293-0.821-0.505-1.176c0.264,0.096,0.527,0.193,0.792,0.29c0.018-0.05,0.035-0.1,0.055-0.15
		c-0.33-0.135-0.659-0.269-0.988-0.404c-0.003,0.008-0.006,0.015-0.008,0.023c-0.774-1.125-2.018-1.788-3.496-1.788l-0.073,0
		c-0.812,0.012-1.622,0.013-2.431,0.015c-0.514,0.975-0.621,2.077-0.131,3.435c0.012,0.033,0.01,0.063,0.02,0.095
		c0.866-0.002,1.731-0.003,2.615-0.017c0.359,0,0.609,0.101,0.745,0.603c0.098,0.36,0.191,0.721,0.289,1.081
		c-0.062,0.035-0.12,0.077-0.183,0.109c-0.367,0.189-0.597,0.052-0.62-0.365c-0.004-0.073-0.008-0.146-0.011-0.208
		c-0.117-0.035-0.23-0.109-0.3-0.08c-0.102,0.042-0.173,0.161-0.257,0.246c0.279,0.269,0.192,0.553,0.043,0.844
		c-0.012,0.025,0.026,0.078,0.066,0.187c0.066-0.176,0.105-0.277,0.171-0.453c0.106,0.164,0.175,0.277,0.249,0.385
		c0.143,0.203,0.425,0.208,0.498-0.008c0.081-0.246,0.217-0.394,0.388-0.487c0.663,2.453,1.318,4.908,1.97,7.364l0.344,1.3
		c0.505,1.904,1.008,3.808,1.51,5.712c0.541,2.049,1.082,4.098,1.625,6.146c0.334,1.255,0.67,2.51,1.006,3.764
		c0.592,2.206,1.184,4.411,1.758,6.619c0.065,0.254,0.031,0.489-0.012,0.541c-1.16,0.457-2.091,0.738-2.93,0.884
		c-2.033,0.355-4.174,0.648-6.361,0.87c-1.445,0.149-2.947,0.217-4.401,0.284l-1.169,0.055c-0.756,0.037-1.512,0.056-2.268,0.077
		c-0.478,0.012-0.955,0.025-1.437,0.042c-0.212,0.007-0.397,0.05-0.554,0.103H22.553c-0.15-0.052-0.33-0.093-0.533-0.102
		c-0.451-0.022-0.901-0.04-1.352-0.058c-0.459-0.019-0.919-0.037-1.379-0.06l-0.906-0.042c-1.063-0.05-2.128-0.1-3.19-0.179
		l-0.385-0.028c-1.429-0.106-2.905-0.216-4.319-0.408c-1.695-0.232-3.506-0.534-5.867-0.977c-0.717-0.134-0.976-0.318-1.092-0.489
		v-0.492c0.016-0.044,0.031-0.09,0.043-0.139l0.383-1.489c0.154-0.601,0.311-1.2,0.467-1.799c-0.164-0.032-0.328-0.065-0.49-0.098
		c0.23-0.687,0.463-1.101,0.854-1.286c0.374-1.403,0.75-2.806,1.126-4.208c0.363-1.35,0.726-2.699,1.086-4.049
		c0.343-1.287,0.683-2.575,1.022-3.862c0.333-1.26,0.665-2.52,1.001-3.78c0.248-0.929,0.498-1.858,0.748-2.787
		c-0.398,0.037-0.905,0.083-1.69,0.155c0.366-0.54,0.547-0.805,0.741-1.09c0.33,0.302,0.633,0.578,0.965,0.88
		c0.063-0.234,0.125-0.467,0.188-0.701c0.625-2.314,1.27-4.707,1.875-7.074c0.371-1.452,0.371-1.452,1.588-1.452l0.23,0.003
		c1.656,0.037,3.314,0.027,4.972,0.018c0.67-0.003,1.341-0.007,2.009-0.008c0.152,0,0.306-0.011,0.469-0.026l2.064-0.149
		c-0.924-1.05-0.937-2.623-1.906-3.655c-0.178-0.188-0.066-0.646-0.089-0.979c0.091-0.023,0.183-0.047,0.272-0.07
		c-0.57-1.387-0.771-2.833-0.582-4.326c-0.115-0.024-0.231-0.049-0.348-0.074c0-0.46,0-0.92,0-1.379
		c0.194,0.088,0.389,0.176,0.583,0.265c0.833-3.284,2.843-5.434,6.152-6.552c0.308-0.104,0.656-0.186,1.026-0.271
		c0.121-0.028,0.244-0.057,0.366-0.087h2.404c0.106,0.036,0.219,0.063,0.335,0.081c2.469,0.345,4.462,1.534,5.923,3.534
		c1.858,2.543,2.308,5.34,1.335,8.313c-0.198,0.606-0.501,1.223-0.821,1.876c-0.165,0.335-0.329,0.67-0.482,1.008l-1.134,2.495
		l2.926,0.004c-0.395-0.351-0.92-0.587-1.641-0.655c0.065-0.599-0.021-1.281,0.247-1.768c0.183-0.333,0.86-0.392,1.429-0.618
		c0.209,0.238,0.449,0.514,0.69,0.787c1.348,1.518,2.636,1.388,3.488-0.335c0.072,0.076,0.139,0.169,0.198,0.283
		c0.128-0.094,0.311-0.159,0.35-0.273c0.051-0.144-0.004-0.332-0.039-0.495c-0.024-0.112-0.093-0.214-0.141-0.32
		c0.019-0.044,0.038-0.087,0.057-0.131c-0.056,0-0.111,0.001-0.167,0.001l-1.885-0.003c0.101-0.246,0.194-0.498,0.279-0.758
		c1.326-4.055,0.69-8.028-1.839-11.491c-1.789-2.448-4.25-4.058-7.143-4.724c-0.008,0.08-0.018,0.16-0.025,0.24
		c-1.422,0.095-2.879,0.472-4.196-0.312c0.01-0.089,0.019-0.178,0.028-0.267h-0.613l-0.214,0.055
		c-0.172,0.043-0.345,0.084-0.519,0.124c-0.327,0.076-0.666,0.163-1.014,0.264c0.039,0.492,0.04,1.213,0.107,1.917
		c-0.784-0.519-1.375-0.91-1.883-1.246c-3.689,1.681-6.127,4.664-7.08,8.712c-0.606,2.568-0.404,5.118,0.574,7.489
		c-1.482,0.007-2.965,0.013-4.448-0.02l-0.308-0.003c-3.312,0-4.344,1.506-5.008,4.108c-0.138,0.539-0.283,1.082-0.424,1.623
		c0.043,0.639,0.133,1.283,0.221,2.107c-0.26,0-0.515,0-0.773,0c-0.295,1.108-0.594,2.213-0.886,3.298
		c-0.319,1.185-0.639,2.369-0.954,3.554c-0.336,1.262-0.67,2.525-1.004,3.788c-0.338,1.285-0.678,2.569-1.021,3.854
		c-0.359,1.348-0.722,2.695-1.083,4.043c-0.102,0.38-0.203,0.759-0.305,1.14c0.183,0.344,0.195,0.938,0.023,1.834
		c-0.104-0.252-0.207-0.504-0.313-0.756c-0.233,0.874-0.469,1.748-0.701,2.621c-0.195,0.733-0.383,1.469-0.571,2.204
		c0.245,0.227,0.476,0.438,0.705,0.649c-0.069,0.077-0.139,0.154-0.208,0.231c-0.24-0.03-0.477-0.066-0.689-0.135l-0.181,0.704
		L0,52.444v2.299l0.093,0.275c0.552,1.632,1.855,2.653,3.876,3.032c2.423,0.455,4.285,0.764,6.043,1.006
		c1.521,0.206,3.053,0.32,4.535,0.431l0.383,0.028c1.094,0.082,2.191,0.134,3.289,0.185l0.896,0.043
		c0.471,0.022,0.941,0.042,1.412,0.061c0.323,0.013,0.646,0.026,0.973,0.04l0.253,0.122H38.1l0.244-0.117
		c0.349-0.011,0.697-0.02,1.045-0.028c0.782-0.021,1.564-0.042,2.348-0.08l1.157-0.055c1.503-0.069,3.056-0.14,4.599-0.299
		c0.224-0.022,0.445-0.049,0.668-0.073c0.406-0.765,1.195-0.317,1.96-0.233c0.242-0.031,0.487-0.06,0.728-0.092
		c0.145-0.068,0.282-0.174,0.41-0.33c-0.359-0.437-0.771-0.938-1.183-1.438c0.052-0.114,0.103-0.226,0.155-0.339
		c0.372,0.191,0.791,0.326,1.107,0.586c0.452,0.373,1.008,0.771,1.191,1.275c0.529-0.083,1.054-0.169,1.571-0.26
		c1.081-0.188,2.23-0.53,3.619-1.079C59.811,56.579,60.29,54.384,59.852,52.693z M43.631,17.656c0.002,0.123,0.004,0.25,0.007,0.358
		c-0.062,0.014-0.114,0.009-0.161-0.004C43.528,17.893,43.579,17.774,43.631,17.656z M41.651,9.969
		C41.2,9.43,40.75,8.892,40.217,8.254C41.58,8.081,41.897,8.41,41.651,9.969z M4.707,57.057c1.061,0,1.969,0,3.07,0
		C6.373,57.861,5.335,57.875,4.707,57.057z M29.575,57.604c-0.007-0.102-0.015-0.203-0.022-0.306
		c0.506-0.011,1.032-0.104,1.501,0.022c0.131,0.035,0.088,0.716,0.149,1.362C30.435,58.173,30.005,57.889,29.575,57.604z
		 M34.676,57.718c-0.77,0.051-1.557,0.255-2.27-0.169c0.014-0.133,0.027-0.266,0.041-0.398c0.758,0.048,1.516,0.097,2.273,0.145
		C34.705,57.437,34.691,57.577,34.676,57.718z"/>
</symbol>

<symbol id = "play" viewBox="0 0 300 300">
	<path class="st0" d="M196.1,139.6l-91-72.5c-8.7-6.9-21.5-0.7-21.5,10.4v145c0,11.1,12.8,17.3,21.5,10.4l91-72.5
		C202.8,155.1,202.8,144.9,196.1,139.6z"/>
</symbol>

<symbol id = "sound">
<path class="st0" d="M196.1,139.6l-91-72.5c-8.7-6.9-21.5-0.7-21.5,10.4v145c0,11.1,12.8,17.3,21.5,10.4l91-72.5
		C202.8,155.1,202.8,144.9,196.1,139.6z"/>
</symbol>

</svg>